<?xml version="1.0" encoding="UTF-8"?>
<!-- Generator: visioncortex VTracer 0.6.1 -->
<svg version="1.1" xmlns="http://www.w3.org/2000/svg" width="731" height="1280">
<path d="M0 0 C3.37446709 0.04459099 6.74884196 0.06134499 10.12354851 0.07727146 C14.17745003 0.09677219 18.2312348 0.1271942 22.28503418 0.16168213 C23.42713663 0.17132083 23.42713663 0.17132083 24.59231186 0.18115425 C26.72682681 0.20207359 28.86109685 0.23033041 30.9954834 0.26153564 C32.80809158 0.28535057 32.80809158 0.28535057 34.65731812 0.30964661 C37.60534668 0.47027588 37.60534668 0.47027588 40.60534668 1.47027588 C41.9838291 1.70210998 43.36761502 1.90329092 44.75378418 2.08355713 C45.58273193 2.1946582 46.41167969 2.30575928 47.26574707 2.42022705 C48.16156494 2.53986816 49.05738281 2.65950928 49.98034668 2.78277588 C72.79793934 5.98761493 96.46754011 9.95272946 117.60534668 19.47027588 C119.2205454 19.9815085 120.84517207 20.46457199 122.48034668 20.90777588 C126.61869781 22.10802273 130.43436662 23.63363302 134.33972168 25.44293213 C136.65250464 26.49165957 138.98863161 27.42531083 141.35534668 28.34527588 C151.64482489 32.44853812 161.47005709 37.36866896 171.29284668 42.47027588 C172.254729 42.96849854 173.21661133 43.46672119 174.2076416 43.9800415 C180.47979655 47.26322766 186.57297785 50.76654741 192.60534668 54.47027588 C193.77326922 55.17868539 194.94123222 55.88702823 196.10925293 56.59527588 C207.93467633 63.84457758 219.54180234 71.3685911 230.10534668 80.40777588 C232.23797729 82.16719613 234.0740092 83.39932541 236.60534668 84.47027588 C236.60534668 85.13027588 236.60534668 85.79027588 236.60534668 86.47027588 C237.15577637 86.71390869 237.70620605 86.9575415 238.27331543 87.20855713 C245.33299016 91.02811314 251.41255321 97.07867234 256.96081543 102.82183838 C258.6079917 104.47292718 260.3231861 105.96669714 262.10534668 107.47027588 C275.33450493 118.88722067 286.75551216 131.87896098 297.29821777 145.75592041 C299.00878233 147.99939899 300.73706 150.22891434 302.46496582 152.45904541 C316.33394433 170.39265413 316.33394433 170.39265413 319.68347168 177.64996338 C320.64616821 179.55088111 321.76169535 181.14498245 323.04284668 182.84527588 C325.60132303 186.29297876 327.42417602 189.94026761 329.28894043 193.79840088 C330.6536181 196.5682511 332.11267728 199.26743717 333.60534668 201.97027588 C338.13726634 210.24595526 342.10712027 218.43646445 345.39440918 227.29449463 C346.2415943 229.51630592 347.14796941 231.71603539 348.09753418 233.89605713 C350.14722178 238.75477256 351.70739163 243.73559483 353.32409668 248.75152588 C354.56036911 252.4982948 354.56036911 252.4982948 356.19909668 256.13043213 C357.40455433 258.99339404 358.11965217 261.36712586 358.60534668 264.40777588 C359.10670128 267.53601967 359.89046352 270.32130086 361.03503418 273.26324463 C362.62911079 277.39128324 363.74172855 281.53645816 364.73034668 285.84527588 C364.90356445 286.58769531 365.07678223 287.33011475 365.25524902 288.09503174 C366.30884521 292.75290225 367.09694902 297.31864648 367.33190918 302.09918213 C367.57366882 304.68451805 367.57366882 304.68451805 368.52185059 307.97052002 C372.67593659 324.41457957 373.0476399 341.43130147 372.88659668 358.29302979 C372.85477574 361.65560772 372.84554037 365.01771684 372.83972168 368.38043213 C372.83057331 370.53798996 372.82020457 372.69554305 372.80847168 374.85308838 C372.8042218 375.84881866 372.79997192 376.84454895 372.79559326 377.87045288 C372.78118195 379.26008743 372.78118195 379.26008743 372.76647949 380.67779541 C372.75965149 381.48556427 372.75282349 382.29333313 372.74578857 383.12557983 C372.59455594 385.65042866 372.12838746 387.99791454 371.60534668 390.47027588 C371.3382655 393.05439118 371.09790195 395.63174917 370.88659668 398.22027588 C370.82379517 398.9560083 370.76099365 399.69174072 370.69628906 400.44976807 C370.49661888 402.78971897 370.30053473 405.1299471 370.10534668 407.47027588 C369.84816684 410.55389388 369.58726856 413.63716413 369.32409668 416.72027588 C369.26677368 417.42249268 369.20945068 418.12470947 369.15039062 418.84820557 C368.84223582 422.45420727 368.3742474 425.93508268 367.60534668 429.47027588 C367.39061379 430.81763211 367.18595904 432.16663828 366.99206543 433.51715088 C365.39274111 444.32586004 363.27480219 454.87662586 360.60534668 465.47027588 C360.44034668 466.13801025 360.27534668 466.80574463 360.10534668 467.49371338 C356.01030729 483.68191596 356.01030729 483.68191596 353.44519043 491.04449463 C352.55094674 493.62740315 351.71140902 496.22637605 350.86877441 498.82647705 C348.46177518 506.20211181 345.68004798 513.34737852 342.60534668 520.47027588 C341.79044536 522.42761119 340.97797349 524.38595961 340.16784668 526.34527588 C337.80122944 532.02965082 335.37525497 537.68729596 332.93737793 543.34136963 C332.13932926 545.2159649 331.36040994 547.09914125 330.62097168 548.99761963 C329.40930807 551.94755451 327.99164191 554.75464051 326.54284668 557.59527588 C325.03251585 560.55685369 323.65685854 563.3157403 322.60534668 566.47027588 C321.94534668 566.47027588 321.28534668 566.47027588 320.60534668 566.47027588 C320.49319824 567.009104 320.3810498 567.54793213 320.26550293 568.10308838 C317.81960646 576.87358105 312.84300536 585.08530007 308.23400879 592.88775635 C306.74950666 595.4080851 305.53441728 597.68306406 304.60534668 600.47027588 C303.94534668 600.47027588 303.28534668 600.47027588 302.60534668 600.47027588 C302.44679199 601.02715088 302.2882373 601.58402588 302.12487793 602.15777588 C300.37735337 607.87343631 297.99326097 612.55579151 294.60534668 617.47027588 C293.61534668 617.14027588 292.62534668 616.81027588 291.60534668 616.47027588 C291.83222168 617.00652588 292.05909668 617.54277588 292.29284668 618.09527588 C292.75462299 621.60477586 291.33722966 623.42455064 289.60534668 626.47027588 C289.24440918 627.11093994 288.88347168 627.751604 288.51159668 628.41168213 C287.55414455 630.10432072 286.58102261 631.78807599 285.60534668 633.47027588 C284.61534668 633.14027588 283.62534668 632.81027588 282.60534668 632.47027588 C282.81159668 633.04777588 283.01784668 633.62527588 283.23034668 634.22027588 C283.69195929 636.98995155 283.03479613 638.11588855 281.60534668 640.47027588 C280.94534668 640.47027588 280.28534668 640.47027588 279.60534668 640.47027588 C279.44034668 641.37777588 279.27534668 642.28527588 279.10534668 643.22027588 C277.68754023 648.28533804 274.51954986 652.26591975 271.56237793 656.54449463 C269.59799651 659.48126446 268.03382696 662.40618461 266.53894043 665.59527588 C265.14462683 668.39557098 263.45483289 670.98890223 261.75378418 673.61090088 C260.57809711 675.51439423 259.57681107 677.45604697 258.60534668 679.47027588 C257.94534668 679.47027588 257.28534668 679.47027588 256.60534668 679.47027588 C256.48159668 680.06840088 256.35784668 680.66652588 256.23034668 681.28277588 C255.60534668 683.47027588 255.60534668 683.47027588 253.60534668 686.47027588 C252.94534668 686.14027588 252.28534668 685.81027588 251.60534668 685.47027588 C251.8141748 686.05422119 252.02300293 686.6381665 252.23815918 687.23980713 C252.70616182 690.08267422 252.1088449 690.83204638 250.48034668 693.15777588 C248.57313134 696.00020975 246.80249676 698.83688077 245.16784668 701.84527588 C243.4063479 705.06001116 241.57130635 708.2124985 239.66784668 711.34527588 C236.47101964 716.62626808 233.5217247 722.03050696 230.60534668 727.47027588 C229.61534668 727.14027588 228.62534668 726.81027588 227.60534668 726.47027588 C227.83222168 727.00652588 228.05909668 727.54277588 228.29284668 728.09527588 C228.74492813 731.53109489 227.27712683 733.52794282 225.60534668 736.47027588 C224.94534668 736.47027588 224.28534668 736.47027588 223.60534668 736.47027588 C222.94534668 738.78027588 222.28534668 741.09027588 221.60534668 743.47027588 C220.61534668 743.14027588 219.62534668 742.81027588 218.60534668 742.47027588 C218.83222168 743.00652588 219.05909668 743.54277588 219.29284668 744.09527588 C219.74492813 747.53109489 218.27712683 749.52794282 216.60534668 752.47027588 C215.94534668 752.47027588 215.28534668 752.47027588 214.60534668 752.47027588 C214.39909668 753.41902588 214.19284668 754.36777588 213.98034668 755.34527588 C212.76787804 759.59745464 210.59418286 763.03958669 208.26159668 766.76715088 C205.97569172 770.49792029 203.94579914 774.35286047 201.90222168 778.22027588 C200.60534668 780.47027588 200.60534668 780.47027588 198.60534668 782.47027588 C197.94534668 782.14027588 197.28534668 781.81027588 196.60534668 781.47027588 C196.80644043 782.04906494 197.00753418 782.627854 197.21472168 783.22418213 C197.69500125 785.98578967 197.18370629 786.97726282 195.85534668 789.40777588 C195.50987793 790.05617432 195.16440918 790.70457275 194.80847168 791.37261963 C192.9292295 794.64909058 190.9718514 797.87481664 188.99206543 801.09136963 C184.95000036 807.79097633 181.79299867 814.4626872 178.96472168 821.73199463 C178.51612793 822.63562744 178.06753418 823.53926025 177.60534668 824.47027588 C176.61534668 824.80027588 175.62534668 825.13027588 174.60534668 825.47027588 C173.7522919 827.43007948 173.7522919 827.43007948 173.23034668 829.84527588 C171.9043283 834.70734329 170.06503744 839.06843416 167.92565918 843.62261963 C165.66186414 848.50518348 163.65222019 853.49381465 161.60534668 858.47027588 C159.20262912 864.31188296 156.78553707 870.1247445 154.10534668 875.84527588 C151.63539725 881.19554252 149.72741337 886.68964664 147.79284668 892.25152588 C146.5984344 895.48901178 145.18948704 898.44500059 143.57019043 901.48199463 C141.99298863 904.73217971 140.88386064 908.14468092 139.73034668 911.56402588 C138.8265965 913.89871383 137.8457284 915.99265242 136.69519043 918.20465088 C134.38779578 922.73188518 132.77669925 927.40893954 131.16784668 932.22027588 C128.9570141 938.68754916 126.61583972 945.02149861 123.91394043 951.30230713 C121.21706634 957.83115753 118.88084345 964.50249394 116.46081543 971.13775635 C115.21761887 974.52745381 113.94303042 977.90501567 112.66784668 981.28277588 C106.61959302 997.3754508 100.82833263 1013.53174964 95.4642334 1029.86578369 C94.60419364 1032.47377237 93.73365329 1035.07800697 92.85925293 1037.68121338 C86.6824614 1056.07402022 80.80954031 1074.54971601 75.2947998 1093.1519165 C74.55489346 1095.63993017 73.80692215 1098.12544506 73.05847168 1100.61090088 C71.87383884 1104.55486608 70.73493978 1108.51015799 69.60534668 1112.47027588 C69.11332925 1114.13217077 68.61968349 1115.79358399 68.12487793 1117.45465088 C64.46508161 1129.79151508 61.05443516 1142.16678212 57.91516113 1154.64703369 C57.64147705 1155.7269458 57.36779297 1156.80685791 57.08581543 1157.91949463 C56.84758057 1158.87170898 56.6093457 1159.82392334 56.3638916 1160.80499268 C55.61079021 1163.45114905 54.63643819 1165.92223405 53.60534668 1168.47027588 C53.12607863 1170.66992233 52.69318545 1172.8799043 52.29284668 1175.09527588 C50.69121512 1183.56497455 48.45781065 1191.83593238 46.21960449 1200.15533447 C45.11427167 1204.32098066 44.08882853 1208.50616856 43.05700684 1212.69049072 C41.94969684 1217.15667836 40.75936663 1221.59524289 39.54284668 1226.03277588 C38.17147806 1231.09136518 37.06240716 1236.13016918 36.10534668 1241.28277588 C34.92221025 1247.40950399 33.21590656 1252.81740967 30.60534668 1258.47027588 C30.33206543 1259.16508057 30.05878418 1259.85988525 29.77722168 1260.57574463 C27.24960041 1266.5156546 23.01093673 1270.96276519 17.60534668 1274.47027588 C12.92588107 1275.74885386 8.81870981 1275.35641506 4.04284668 1274.72027588 C2.76280762 1274.56043213 1.48276855 1274.40058838 0.16394043 1274.23590088 C-6.10378218 1272.88741171 -9.84561508 1269.70807581 -13.39465332 1264.47027588 C-17.27322543 1257.73453773 -19.6321635 1250.99659049 -21.45715332 1243.47027588 C-21.70900391 1242.47060791 -21.96085449 1241.47093994 -22.22033691 1240.440979 C-24.07244153 1233.01362527 -25.76683402 1225.55512968 -27.33996582 1218.06402588 C-28.29574691 1213.72864636 -29.45572596 1209.45449436 -30.61366272 1205.16937256 C-32.29557095 1198.9111702 -33.88156919 1192.6300091 -35.46105957 1186.34527588 C-44.07935713 1152.10136057 -52.73995001 1117.89010517 -63.83605957 1084.34918213 C-65.69879254 1078.652287 -67.14458903 1072.92214301 -68.26965332 1067.03277588 C-68.94580016 1063.94426872 -69.86045305 1061.28412069 -71.23059082 1058.43902588 C-73.73953609 1052.91605847 -75.42593822 1047.21608875 -77.14465332 1041.40777588 C-79.86747819 1032.39019286 -82.67025696 1023.40826644 -85.64465332 1014.47027588 C-85.96144043 1013.51113281 -86.27822754 1012.55198975 -86.60461426 1011.56378174 C-88.39187183 1006.22310727 -90.35595388 1000.99429939 -92.47961426 995.77886963 C-93.76043169 992.54743696 -94.82992572 989.27956436 -95.89465332 985.97027588 C-97.83730327 980.03172044 -100.00545344 974.24203472 -102.39465332 968.47027588 C-106.81825658 957.55620059 -111.02601134 946.57477561 -115.11242676 935.53033447 C-125.3856602 907.77569352 -137.07062444 880.57887333 -148.64953613 853.35040283 C-150.56785931 848.83161545 -152.47390663 844.31203562 -154.28137207 839.74761963 C-158.58260322 828.89986058 -163.81870471 818.7154388 -169.39465332 808.47027588 C-170.03364995 807.28330067 -170.67176179 806.09584843 -171.30871582 804.90777588 C-172.42652572 802.82528072 -173.5474856 800.74447246 -174.67199707 798.66558838 C-175.94208666 796.3097306 -177.20517324 793.95087106 -178.46105957 791.58746338 C-178.81410156 790.92327393 -179.16714355 790.25908447 -179.53088379 789.57476807 C-180.20658352 788.30245654 -180.88145777 787.0297061 -181.55529785 785.75640869 C-183.4214449 782.24400168 -185.3503552 778.7747754 -187.33435059 775.32769775 C-188.91713646 772.55499803 -190.45449693 769.75760803 -191.99719238 766.96246338 C-195.99890886 759.71453485 -200.06317383 752.52760022 -204.39465332 745.47027588 C-207.98488494 739.58418561 -211.42185734 733.6494755 -214.69934082 727.58355713 C-216.71433534 723.88321006 -218.76804747 720.20589534 -220.83215332 716.53277588 C-221.17931396 715.91322021 -221.52647461 715.29366455 -221.88415527 714.65533447 C-225.31795264 708.55307114 -228.85999157 702.51447645 -232.39465332 696.47027588 C-233.52650084 694.52906614 -234.65801666 692.58766296 -235.78918457 690.64605713 C-248.85189634 668.2238132 -248.85189634 668.2238132 -262.13537598 645.93218994 C-265.36155798 640.56334152 -268.46380508 635.12872624 -271.55480957 629.68121338 C-273.17303107 626.85705612 -274.83030288 624.06471919 -276.51965332 621.28277588 C-279.06566192 617.07364875 -281.42628203 612.78338288 -283.76184082 608.45465088 C-285.59645836 605.10142647 -287.49000839 601.78397164 -289.39465332 598.47027588 C-292.81183603 592.51365267 -296.1408395 586.5176079 -299.39465332 580.47027588 C-300.02629395 579.32301025 -300.65793457 578.17574463 -301.30871582 576.99371338 C-306.33092561 567.78146567 -310.86356837 558.36375768 -315.26965332 548.84527588 C-315.55237091 548.23459259 -315.8350885 547.6239093 -316.12637329 546.99472046 C-320.37500381 537.80081817 -324.38357828 528.57087026 -328.1270752 519.15924072 C-329.22803622 516.39263657 -330.33024013 513.62717981 -331.46105957 510.87261963 C-333.63744459 505.56369718 -335.60130006 500.18914948 -337.51965332 494.78277588 C-337.77359863 494.06944092 -338.02754395 493.35610596 -338.28918457 492.62115479 C-341.28538294 484.09823866 -343.53419547 475.36672269 -345.81945801 466.63189697 C-346.39070866 464.48510017 -346.98891848 462.34717872 -347.58996582 460.20855713 C-350.53553296 449.43339979 -352.47565811 438.56609842 -354.14465332 427.53277588 C-354.3048848 426.48322723 -354.3048848 426.48322723 -354.46835327 425.41247559 C-358.27722721 400.23542366 -358.27722721 400.23542366 -356.39465332 396.47027588 C-357.05465332 396.47027588 -357.71465332 396.47027588 -358.39465332 396.47027588 C-358.41779061 386.33488511 -358.43557551 376.19950059 -358.44646549 366.06408882 C-358.45169127 361.35816645 -358.45878342 356.6522621 -358.47009277 351.9463501 C-358.48093244 347.40764055 -358.48693246 342.86894838 -358.48953056 338.3302269 C-358.49138286 336.59582114 -358.49499975 334.86141637 -358.50038338 333.12701797 C-358.5076081 330.70381847 -358.50864365 328.2806914 -358.50817871 325.85748291 C-358.51177399 325.13531586 -358.51536926 324.4131488 -358.51907349 323.6690979 C-358.50870548 318.6983802 -358.50870548 318.6983802 -357.39465332 316.47027588 C-357.06956743 314.61816593 -356.78768007 312.75838917 -356.52746582 310.89605713 C-356.36584961 309.7610376 -356.2042334 308.62601807 -356.03771973 307.456604 C-355.86675781 306.24424072 -355.6957959 305.03187744 -355.51965332 303.78277588 C-352.03831419 279.9089552 -345.55317485 258.12353823 -337.39465332 235.47027588 C-337.12088867 234.70956787 -336.84712402 233.94885986 -336.56506348 233.1651001 C-334.15068395 226.49451856 -331.7086423 219.93600611 -328.47644043 213.61236572 C-327.3115366 211.30569314 -326.20385538 208.9773514 -325.10559082 206.63824463 C-324.7214502 205.82033447 -324.33730957 205.00242432 -323.94152832 204.159729 C-323.15137032 202.47274168 -322.36233193 200.78522956 -321.57434082 199.097229 C-321.19277832 198.28576416 -320.81121582 197.47429932 -320.41809082 196.63824463 C-319.90641357 195.54419312 -319.90641357 195.54419312 -319.38439941 194.42803955 C-318.39465332 192.47027588 -318.39465332 192.47027588 -316.39465332 189.47027588 C-315.73465332 189.47027588 -315.07465332 189.47027588 -314.39465332 189.47027588 C-314.27734863 188.74324463 -314.16004395 188.01621338 -314.03918457 187.26715088 C-311.92017117 178.07191697 -305.16464198 170.08266753 -299.70983887 162.57281494 C-297.41583994 159.40341089 -295.22912138 156.28116982 -293.35168457 152.84527588 C-291.2697896 149.25494204 -288.93557433 146.32167426 -286.20715332 143.22027588 C-285.22576278 142.08565586 -284.24530786 140.95022596 -283.26574707 139.81402588 C-282.78089844 139.25328369 -282.2960498 138.6925415 -281.79650879 138.11480713 C-279.73274343 135.6937825 -277.75557017 133.20528958 -275.76965332 130.72027588 C-272.22600794 126.34808032 -268.43365714 122.39951604 -264.33996582 118.54058838 C-262.29919382 116.52408389 -262.29919382 116.52408389 -260.92199707 113.94293213 C-259.19803371 111.15196332 -257.46002699 109.72731803 -254.83215332 107.78277588 C-251.09850822 104.90408139 -247.74327396 101.91338561 -244.45715332 98.53277588 C-239.91780763 93.9019395 -235.11675117 89.81719427 -230.04016113 85.79058838 C-228.13944769 84.26550554 -226.26291081 82.71306706 -224.38684082 81.15777588 C-223.68575195 80.57938965 -222.98466309 80.00100342 -222.2623291 79.40509033 C-220.88547093 78.26903154 -219.51129075 77.12971658 -218.14025879 75.9866333 C-214.06493005 72.64396514 -209.99606332 70.03248466 -205.39465332 67.47027588 C-203.31382841 65.99580175 -201.25193698 64.49433823 -199.20715332 62.97027588 C-187.63287186 54.5465412 -175.22783508 47.23844978 -162.45715332 40.78277588 C-161.81342773 40.4558374 -161.16970215 40.12889893 -160.50646973 39.79205322 C-157.16352648 38.15230426 -154.08720815 36.99578178 -150.39465332 36.47027588 C-150.39465332 35.81027588 -150.39465332 35.15027588 -150.39465332 34.47027588 C-144.42934788 31.70309997 -138.45556332 29.00846231 -132.32824707 26.61871338 C-130.10249364 25.74737981 -127.89041428 24.85509287 -125.67980957 23.94683838 C-116.6711126 20.29118118 -107.55979036 17.15020203 -98.26965332 14.28277588 C-97.23453613 13.96212158 -96.19941895 13.64146729 -95.13293457 13.31109619 C-63.39794674 3.68931797 -33.02954122 -0.50199119 0 0 Z M355.60534668 472.47027588 C355.93534668 473.13027588 356.26534668 473.79027588 356.60534668 474.47027588 C356.93534668 473.81027588 357.26534668 473.15027588 357.60534668 472.47027588 C356.94534668 472.47027588 356.28534668 472.47027588 355.60534668 472.47027588 Z M308.60534668 585.47027588 C308.93534668 586.13027588 309.26534668 586.79027588 309.60534668 587.47027588 C309.93534668 586.81027588 310.26534668 586.15027588 310.60534668 585.47027588 C309.94534668 585.47027588 309.28534668 585.47027588 308.60534668 585.47027588 Z M301.60534668 598.47027588 C301.93534668 599.13027588 302.26534668 599.79027588 302.60534668 600.47027588 C302.93534668 599.81027588 303.26534668 599.15027588 303.60534668 598.47027588 C302.94534668 598.47027588 302.28534668 598.47027588 301.60534668 598.47027588 Z M213.60534668 750.47027588 C213.93534668 751.13027588 214.26534668 751.79027588 214.60534668 752.47027588 C214.93534668 751.81027588 215.26534668 751.15027588 215.60534668 750.47027588 C214.94534668 750.47027588 214.28534668 750.47027588 213.60534668 750.47027588 Z " fill="#FB4546" transform="translate(358.3946533203125,-0.47027587890625)"/>
<path d="M0 0 C3.37446709 0.04459099 6.74884196 0.06134499 10.12354851 0.07727146 C14.17745003 0.09677219 18.2312348 0.1271942 22.28503418 0.16168213 C23.42713663 0.17132083 23.42713663 0.17132083 24.59231186 0.18115425 C26.72682681 0.20207359 28.86109685 0.23033041 30.9954834 0.26153564 C32.80809158 0.28535057 32.80809158 0.28535057 34.65731812 0.30964661 C37.60534668 0.47027588 37.60534668 0.47027588 40.60534668 1.47027588 C41.9838291 1.70210998 43.36761502 1.90329092 44.75378418 2.08355713 C45.58273193 2.1946582 46.41167969 2.30575928 47.26574707 2.42022705 C48.16156494 2.53986816 49.05738281 2.65950928 49.98034668 2.78277588 C72.79793934 5.98761493 96.46754011 9.95272946 117.60534668 19.47027588 C119.2205454 19.9815085 120.84517207 20.46457199 122.48034668 20.90777588 C126.61869781 22.10802273 130.43436662 23.63363302 134.33972168 25.44293213 C136.65250464 26.49165957 138.98863161 27.42531083 141.35534668 28.34527588 C151.64482489 32.44853812 161.47005709 37.36866896 171.29284668 42.47027588 C172.254729 42.96849854 173.21661133 43.46672119 174.2076416 43.9800415 C180.47979655 47.26322766 186.57297785 50.76654741 192.60534668 54.47027588 C193.77326922 55.17868539 194.94123222 55.88702823 196.10925293 56.59527588 C207.93467633 63.84457758 219.54180234 71.3685911 230.10534668 80.40777588 C232.23797729 82.16719613 234.0740092 83.39932541 236.60534668 84.47027588 C236.60534668 85.13027588 236.60534668 85.79027588 236.60534668 86.47027588 C237.15577637 86.71390869 237.70620605 86.9575415 238.27331543 87.20855713 C245.33299016 91.02811314 251.41255321 97.07867234 256.96081543 102.82183838 C258.6079917 104.47292718 260.3231861 105.96669714 262.10534668 107.47027588 C275.33450493 118.88722067 286.75551216 131.87896098 297.29821777 145.75592041 C299.00878233 147.99939899 300.73706 150.22891434 302.46496582 152.45904541 C316.33394433 170.39265413 316.33394433 170.39265413 319.68347168 177.64996338 C320.64616821 179.55088111 321.76169535 181.14498245 323.04284668 182.84527588 C325.60132303 186.29297876 327.42417602 189.94026761 329.28894043 193.79840088 C330.6536181 196.5682511 332.11267728 199.26743717 333.60534668 201.97027588 C338.13726634 210.24595526 342.10712027 218.43646445 345.39440918 227.29449463 C346.2415943 229.51630592 347.14796941 231.71603539 348.09753418 233.89605713 C350.14722178 238.75477256 351.70739163 243.73559483 353.32409668 248.75152588 C354.56036911 252.4982948 354.56036911 252.4982948 356.19909668 256.13043213 C357.40455433 258.99339404 358.11965217 261.36712586 358.60534668 264.40777588 C359.10670128 267.53601967 359.89046352 270.32130086 361.03503418 273.26324463 C362.62911079 277.39128324 363.74172855 281.53645816 364.73034668 285.84527588 C364.90356445 286.58769531 365.07678223 287.33011475 365.25524902 288.09503174 C366.30884521 292.75290225 367.09694902 297.31864648 367.33190918 302.09918213 C367.57366882 304.68451805 367.57366882 304.68451805 368.52185059 307.97052002 C372.67593659 324.41457957 373.0476399 341.43130147 372.88659668 358.29302979 C372.85477574 361.65560772 372.84554037 365.01771684 372.83972168 368.38043213 C372.83057331 370.53798996 372.82020457 372.69554305 372.80847168 374.85308838 C372.8042218 375.84881866 372.79997192 376.84454895 372.79559326 377.87045288 C372.78118195 379.26008743 372.78118195 379.26008743 372.76647949 380.67779541 C372.75965149 381.48556427 372.75282349 382.29333313 372.74578857 383.12557983 C372.59455594 385.65042866 372.12838746 387.99791454 371.60534668 390.47027588 C371.3382655 393.05439118 371.09790195 395.63174917 370.88659668 398.22027588 C370.82379517 398.9560083 370.76099365 399.69174072 370.69628906 400.44976807 C370.49661888 402.78971897 370.30053473 405.1299471 370.10534668 407.47027588 C369.84816684 410.55389388 369.58726856 413.63716413 369.32409668 416.72027588 C369.26677368 417.42249268 369.20945068 418.12470947 369.15039062 418.84820557 C368.84223582 422.45420727 368.3742474 425.93508268 367.60534668 429.47027588 C367.39061379 430.81763211 367.18595904 432.16663828 366.99206543 433.51715088 C365.39274111 444.32586004 363.27480219 454.87662586 360.60534668 465.47027588 C360.44034668 466.13801025 360.27534668 466.80574463 360.10534668 467.49371338 C356.01030729 483.68191596 356.01030729 483.68191596 353.44519043 491.04449463 C352.55094674 493.62740315 351.71140902 496.22637605 350.86877441 498.82647705 C348.46177518 506.20211181 345.68004798 513.34737852 342.60534668 520.47027588 C341.79044536 522.42761119 340.97797349 524.38595961 340.16784668 526.34527588 C337.80122944 532.02965082 335.37525497 537.68729596 332.93737793 543.34136963 C332.13932926 545.2159649 331.36040994 547.09914125 330.62097168 548.99761963 C329.40930807 551.94755451 327.99164191 554.75464051 326.54284668 557.59527588 C325.03251585 560.55685369 323.65685854 563.3157403 322.60534668 566.47027588 C321.94534668 566.47027588 321.28534668 566.47027588 320.60534668 566.47027588 C320.49319824 567.009104 320.3810498 567.54793213 320.26550293 568.10308838 C317.81960646 576.87358105 312.84300536 585.08530007 308.23400879 592.88775635 C306.74950666 595.4080851 305.53441728 597.68306406 304.60534668 600.47027588 C303.94534668 600.47027588 303.28534668 600.47027588 302.60534668 600.47027588 C302.44679199 601.02715088 302.2882373 601.58402588 302.12487793 602.15777588 C300.37735337 607.87343631 297.99326097 612.55579151 294.60534668 617.47027588 C293.61534668 617.14027588 292.62534668 616.81027588 291.60534668 616.47027588 C291.83222168 617.00652588 292.05909668 617.54277588 292.29284668 618.09527588 C292.75462299 621.60477586 291.33722966 623.42455064 289.60534668 626.47027588 C289.24440918 627.11093994 288.88347168 627.751604 288.51159668 628.41168213 C287.55414455 630.10432072 286.58102261 631.78807599 285.60534668 633.47027588 C284.61534668 633.14027588 283.62534668 632.81027588 282.60534668 632.47027588 C282.81159668 633.04777588 283.01784668 633.62527588 283.23034668 634.22027588 C283.69195929 636.98995155 283.03479613 638.11588855 281.60534668 640.47027588 C280.94534668 640.47027588 280.28534668 640.47027588 279.60534668 640.47027588 C279.44034668 641.37777588 279.27534668 642.28527588 279.10534668 643.22027588 C277.68754023 648.28533804 274.51954986 652.26591975 271.56237793 656.54449463 C269.59799651 659.48126446 268.03382696 662.40618461 266.53894043 665.59527588 C265.14462683 668.39557098 263.45483289 670.98890223 261.75378418 673.61090088 C260.57809711 675.51439423 259.57681107 677.45604697 258.60534668 679.47027588 C257.94534668 679.47027588 257.28534668 679.47027588 256.60534668 679.47027588 C256.48159668 680.06840088 256.35784668 680.66652588 256.23034668 681.28277588 C255.60534668 683.47027588 255.60534668 683.47027588 253.60534668 686.47027588 C252.94534668 686.14027588 252.28534668 685.81027588 251.60534668 685.47027588 C251.8141748 686.05422119 252.02300293 686.6381665 252.23815918 687.23980713 C252.70616182 690.08267422 252.1088449 690.83204638 250.48034668 693.15777588 C248.57313134 696.00020975 246.80249676 698.83688077 245.16784668 701.84527588 C243.4063479 705.06001116 241.57130635 708.2124985 239.66784668 711.34527588 C236.47101964 716.62626808 233.5217247 722.03050696 230.60534668 727.47027588 C229.61534668 727.14027588 228.62534668 726.81027588 227.60534668 726.47027588 C227.83222168 727.00652588 228.05909668 727.54277588 228.29284668 728.09527588 C228.74492813 731.53109489 227.27712683 733.52794282 225.60534668 736.47027588 C224.94534668 736.47027588 224.28534668 736.47027588 223.60534668 736.47027588 C222.94534668 738.78027588 222.28534668 741.09027588 221.60534668 743.47027588 C220.61534668 743.14027588 219.62534668 742.81027588 218.60534668 742.47027588 C218.83222168 743.00652588 219.05909668 743.54277588 219.29284668 744.09527588 C219.74492813 747.53109489 218.27712683 749.52794282 216.60534668 752.47027588 C215.94534668 752.47027588 215.28534668 752.47027588 214.60534668 752.47027588 C214.39909668 753.41902588 214.19284668 754.36777588 213.98034668 755.34527588 C212.76787804 759.59745464 210.59418286 763.03958669 208.26159668 766.76715088 C205.97569172 770.49792029 203.94579914 774.35286047 201.90222168 778.22027588 C200.60534668 780.47027588 200.60534668 780.47027588 198.60534668 782.47027588 C197.94534668 782.14027588 197.28534668 781.81027588 196.60534668 781.47027588 C196.80644043 782.04906494 197.00753418 782.627854 197.21472168 783.22418213 C197.69500125 785.98578967 197.18370629 786.97726282 195.85534668 789.40777588 C195.50987793 790.05617432 195.16440918 790.70457275 194.80847168 791.37261963 C192.9292295 794.64909058 190.9718514 797.87481664 188.99206543 801.09136963 C184.95000036 807.79097633 181.79299867 814.4626872 178.96472168 821.73199463 C178.51612793 822.63562744 178.06753418 823.53926025 177.60534668 824.47027588 C176.61534668 824.80027588 175.62534668 825.13027588 174.60534668 825.47027588 C173.7522919 827.43007948 173.7522919 827.43007948 173.23034668 829.84527588 C171.9043283 834.70734329 170.06503744 839.06843416 167.92565918 843.62261963 C165.66186414 848.50518348 163.65222019 853.49381465 161.60534668 858.47027588 C159.20262912 864.31188296 156.78553707 870.1247445 154.10534668 875.84527588 C151.63539725 881.19554252 149.72741337 886.68964664 147.79284668 892.25152588 C146.5984344 895.48901178 145.18948704 898.44500059 143.57019043 901.48199463 C141.99298863 904.73217971 140.88386064 908.14468092 139.73034668 911.56402588 C138.8265965 913.89871383 137.8457284 915.99265242 136.69519043 918.20465088 C134.38779578 922.73188518 132.77669925 927.40893954 131.16784668 932.22027588 C128.9570141 938.68754916 126.61583972 945.02149861 123.91394043 951.30230713 C121.21706634 957.83115753 118.88084345 964.50249394 116.46081543 971.13775635 C115.21761887 974.52745381 113.94303042 977.90501567 112.66784668 981.28277588 C106.61959302 997.3754508 100.82833263 1013.53174964 95.4642334 1029.86578369 C94.60419364 1032.47377237 93.73365329 1035.07800697 92.85925293 1037.68121338 C86.6824614 1056.07402022 80.80954031 1074.54971601 75.2947998 1093.1519165 C74.55489346 1095.63993017 73.80692215 1098.12544506 73.05847168 1100.61090088 C71.87383884 1104.55486608 70.73493978 1108.51015799 69.60534668 1112.47027588 C69.11332925 1114.13217077 68.61968349 1115.79358399 68.12487793 1117.45465088 C64.46508161 1129.79151508 61.05443516 1142.16678212 57.91516113 1154.64703369 C57.64147705 1155.7269458 57.36779297 1156.80685791 57.08581543 1157.91949463 C56.84758057 1158.87170898 56.6093457 1159.82392334 56.3638916 1160.80499268 C55.61079021 1163.45114905 54.63643819 1165.92223405 53.60534668 1168.47027588 C53.12607863 1170.66992233 52.69318545 1172.8799043 52.29284668 1175.09527588 C50.69121512 1183.56497455 48.45781065 1191.83593238 46.21960449 1200.15533447 C45.11427167 1204.32098066 44.08882853 1208.50616856 43.05700684 1212.69049072 C41.94969684 1217.15667836 40.75936663 1221.59524289 39.54284668 1226.03277588 C38.17147806 1231.09136518 37.06240716 1236.13016918 36.10534668 1241.28277588 C34.92221025 1247.40950399 33.21590656 1252.81740967 30.60534668 1258.47027588 C30.33206543 1259.16508057 30.05878418 1259.85988525 29.77722168 1260.57574463 C27.24960041 1266.5156546 23.01093673 1270.96276519 17.60534668 1274.47027588 C12.92588107 1275.74885386 8.81870981 1275.35641506 4.04284668 1274.72027588 C2.76280762 1274.56043213 1.48276855 1274.40058838 0.16394043 1274.23590088 C-6.10378218 1272.88741171 -9.84561508 1269.70807581 -13.39465332 1264.47027588 C-17.27322543 1257.73453773 -19.6321635 1250.99659049 -21.45715332 1243.47027588 C-21.70900391 1242.47060791 -21.96085449 1241.47093994 -22.22033691 1240.440979 C-24.07244153 1233.01362527 -25.76683402 1225.55512968 -27.33996582 1218.06402588 C-28.29574691 1213.72864636 -29.45572596 1209.45449436 -30.61366272 1205.16937256 C-32.29557095 1198.9111702 -33.88156919 1192.6300091 -35.46105957 1186.34527588 C-44.07935713 1152.10136057 -52.73995001 1117.89010517 -63.83605957 1084.34918213 C-65.69879254 1078.652287 -67.14458903 1072.92214301 -68.26965332 1067.03277588 C-68.94580016 1063.94426872 -69.86045305 1061.28412069 -71.23059082 1058.43902588 C-73.73953609 1052.91605847 -75.42593822 1047.21608875 -77.14465332 1041.40777588 C-79.86747819 1032.39019286 -82.67025696 1023.40826644 -85.64465332 1014.47027588 C-85.96144043 1013.51113281 -86.27822754 1012.55198975 -86.60461426 1011.56378174 C-88.39187183 1006.22310727 -90.35595388 1000.99429939 -92.47961426 995.77886963 C-93.76043169 992.54743696 -94.82992572 989.27956436 -95.89465332 985.97027588 C-97.83730327 980.03172044 -100.00545344 974.24203472 -102.39465332 968.47027588 C-106.81825658 957.55620059 -111.02601134 946.57477561 -115.11242676 935.53033447 C-125.3856602 907.77569352 -137.07062444 880.57887333 -148.64953613 853.35040283 C-150.56785931 848.83161545 -152.47390663 844.31203562 -154.28137207 839.74761963 C-158.58260322 828.89986058 -163.81870471 818.7154388 -169.39465332 808.47027588 C-170.03364995 807.28330067 -170.67176179 806.09584843 -171.30871582 804.90777588 C-172.42652572 802.82528072 -173.5474856 800.74447246 -174.67199707 798.66558838 C-175.94208666 796.3097306 -177.20517324 793.95087106 -178.46105957 791.58746338 C-178.81410156 790.92327393 -179.16714355 790.25908447 -179.53088379 789.57476807 C-180.20658352 788.30245654 -180.88145777 787.0297061 -181.55529785 785.75640869 C-183.4214449 782.24400168 -185.3503552 778.7747754 -187.33435059 775.32769775 C-188.91713646 772.55499803 -190.45449693 769.75760803 -191.99719238 766.96246338 C-195.99890886 759.71453485 -200.06317383 752.52760022 -204.39465332 745.47027588 C-207.98488494 739.58418561 -211.42185734 733.6494755 -214.69934082 727.58355713 C-216.71433534 723.88321006 -218.76804747 720.20589534 -220.83215332 716.53277588 C-221.17931396 715.91322021 -221.52647461 715.29366455 -221.88415527 714.65533447 C-225.31795264 708.55307114 -228.85999157 702.51447645 -232.39465332 696.47027588 C-233.52650084 694.52906614 -234.65801666 692.58766296 -235.78918457 690.64605713 C-248.85189634 668.2238132 -248.85189634 668.2238132 -262.13537598 645.93218994 C-265.36155798 640.56334152 -268.46380508 635.12872624 -271.55480957 629.68121338 C-273.17303107 626.85705612 -274.83030288 624.06471919 -276.51965332 621.28277588 C-279.06566192 617.07364875 -281.42628203 612.78338288 -283.76184082 608.45465088 C-285.59645836 605.10142647 -287.49000839 601.78397164 -289.39465332 598.47027588 C-292.81183603 592.51365267 -296.1408395 586.5176079 -299.39465332 580.47027588 C-300.02629395 579.32301025 -300.65793457 578.17574463 -301.30871582 576.99371338 C-306.33092561 567.78146567 -310.86356837 558.36375768 -315.26965332 548.84527588 C-315.55237091 548.23459259 -315.8350885 547.6239093 -316.12637329 546.99472046 C-320.37500381 537.80081817 -324.38357828 528.57087026 -328.1270752 519.15924072 C-329.22803622 516.39263657 -330.33024013 513.62717981 -331.46105957 510.87261963 C-333.63744459 505.56369718 -335.60130006 500.18914948 -337.51965332 494.78277588 C-337.77359863 494.06944092 -338.02754395 493.35610596 -338.28918457 492.62115479 C-341.28538294 484.09823866 -343.53419547 475.36672269 -345.81945801 466.63189697 C-346.39070866 464.48510017 -346.98891848 462.34717872 -347.58996582 460.20855713 C-350.53553296 449.43339979 -352.47565811 438.56609842 -354.14465332 427.53277588 C-354.3048848 426.48322723 -354.3048848 426.48322723 -354.46835327 425.41247559 C-358.27722721 400.23542366 -358.27722721 400.23542366 -356.39465332 396.47027588 C-357.05465332 396.47027588 -357.71465332 396.47027588 -358.39465332 396.47027588 C-358.41779061 386.33488511 -358.43557551 376.19950059 -358.44646549 366.06408882 C-358.45169127 361.35816645 -358.45878342 356.6522621 -358.47009277 351.9463501 C-358.48093244 347.40764055 -358.48693246 342.86894838 -358.48953056 338.3302269 C-358.49138286 336.59582114 -358.49499975 334.86141637 -358.50038338 333.12701797 C-358.5076081 330.70381847 -358.50864365 328.2806914 -358.50817871 325.85748291 C-358.51177399 325.13531586 -358.51536926 324.4131488 -358.51907349 323.6690979 C-358.50870548 318.6983802 -358.50870548 318.6983802 -357.39465332 316.47027588 C-357.06956743 314.61816593 -356.78768007 312.75838917 -356.52746582 310.89605713 C-356.36584961 309.7610376 -356.2042334 308.62601807 -356.03771973 307.456604 C-355.86675781 306.24424072 -355.6957959 305.03187744 -355.51965332 303.78277588 C-352.03831419 279.9089552 -345.55317485 258.12353823 -337.39465332 235.47027588 C-337.12088867 234.70956787 -336.84712402 233.94885986 -336.56506348 233.1651001 C-334.15068395 226.49451856 -331.7086423 219.93600611 -328.47644043 213.61236572 C-327.3115366 211.30569314 -326.20385538 208.9773514 -325.10559082 206.63824463 C-324.7214502 205.82033447 -324.33730957 205.00242432 -323.94152832 204.159729 C-323.15137032 202.47274168 -322.36233193 200.78522956 -321.57434082 199.097229 C-321.19277832 198.28576416 -320.81121582 197.47429932 -320.41809082 196.63824463 C-319.90641357 195.54419312 -319.90641357 195.54419312 -319.38439941 194.42803955 C-318.39465332 192.47027588 -318.39465332 192.47027588 -316.39465332 189.47027588 C-315.73465332 189.47027588 -315.07465332 189.47027588 -314.39465332 189.47027588 C-314.27734863 188.74324463 -314.16004395 188.01621338 -314.03918457 187.26715088 C-311.92017117 178.07191697 -305.16464198 170.08266753 -299.70983887 162.57281494 C-297.41583994 159.40341089 -295.22912138 156.28116982 -293.35168457 152.84527588 C-291.2697896 149.25494204 -288.93557433 146.32167426 -286.20715332 143.22027588 C-285.22576278 142.08565586 -284.24530786 140.95022596 -283.26574707 139.81402588 C-282.78089844 139.25328369 -282.2960498 138.6925415 -281.79650879 138.11480713 C-279.73274343 135.6937825 -277.75557017 133.20528958 -275.76965332 130.72027588 C-272.22600794 126.34808032 -268.43365714 122.39951604 -264.33996582 118.54058838 C-262.29919382 116.52408389 -262.29919382 116.52408389 -260.92199707 113.94293213 C-259.19803371 111.15196332 -257.46002699 109.72731803 -254.83215332 107.78277588 C-251.09850822 104.90408139 -247.74327396 101.91338561 -244.45715332 98.53277588 C-239.91780763 93.9019395 -235.11675117 89.81719427 -230.04016113 85.79058838 C-228.13944769 84.26550554 -226.26291081 82.71306706 -224.38684082 81.15777588 C-223.68575195 80.57938965 -222.98466309 80.00100342 -222.2623291 79.40509033 C-220.88547093 78.26903154 -219.51129075 77.12971658 -218.14025879 75.9866333 C-214.06493005 72.64396514 -209.99606332 70.03248466 -205.39465332 67.47027588 C-203.31382841 65.99580175 -201.25193698 64.49433823 -199.20715332 62.97027588 C-187.63287186 54.5465412 -175.22783508 47.23844978 -162.45715332 40.78277588 C-161.81342773 40.4558374 -161.16970215 40.12889893 -160.50646973 39.79205322 C-157.16352648 38.15230426 -154.08720815 36.99578178 -150.39465332 36.47027588 C-150.39465332 35.81027588 -150.39465332 35.15027588 -150.39465332 34.47027588 C-144.42934788 31.70309997 -138.45556332 29.00846231 -132.32824707 26.61871338 C-130.10249364 25.74737981 -127.89041428 24.85509287 -125.67980957 23.94683838 C-116.6711126 20.29118118 -107.55979036 17.15020203 -98.26965332 14.28277588 C-97.23453613 13.96212158 -96.19941895 13.64146729 -95.13293457 13.31109619 C-63.39794674 3.68931797 -33.02954122 -0.50199119 0 0 Z M-158.39465332 89.47027588 C-159.02677734 89.85973389 -159.65890137 90.24919189 -160.31018066 90.65045166 C-179.69583238 102.67281382 -197.89156886 116.38293054 -214.60559082 131.89996338 C-216.93974882 134.05105017 -219.30211949 136.14953246 -221.70715332 138.22027588 C-228.15369199 143.82769898 -233.84618661 149.98618537 -239.39465332 156.47027588 C-240.1964502 157.38293213 -240.99824707 158.29558838 -241.82434082 159.23590088 C-266.38452352 187.40907664 -284.49735403 220.51104882 -297.39465332 255.47027588 C-297.72835937 256.36955811 -298.06206543 257.26884033 -298.40588379 258.19537354 C-308.25133567 285.11030831 -314.65936604 314.76210302 -315.39465332 343.47027588 C-315.41511719 344.19762939 -315.43558105 344.92498291 -315.45666504 345.67437744 C-316.5696865 391.42783813 -309.8673345 437.08606282 -295.39465332 480.47027588 C-295.0719043 481.45963135 -294.74915527 482.44898682 -294.41662598 483.46832275 C-282.41288635 519.99252196 -264.24939466 554.89345257 -244.67980957 587.87652588 C-241.52944404 593.19984292 -238.53525118 598.59811817 -235.58215332 604.03277588 C-232.24836463 610.15244717 -228.83579975 616.18882699 -225.21398926 622.14337158 C-221.17657243 628.79052882 -217.25769671 635.50672308 -213.33215332 642.22027588 C-208.97389031 649.67271539 -204.61188833 657.12243906 -200.19543457 664.54058838 C-193.39997912 675.95529392 -186.67950957 687.39746714 -180.18444824 698.98614502 C-176.35885007 705.80235425 -172.42464286 712.54838312 -168.45715332 719.28277588 C-162.24117732 729.85997481 -156.39994569 740.61610348 -150.62512207 751.43902588 C-147.9562219 756.43903017 -145.22918868 761.40190927 -142.45715332 766.34527588 C-128.19219487 791.92690282 -115.00142972 817.62596436 -104.08972168 844.85113525 C-101.06868805 852.38820123 -97.97272313 859.8894035 -94.82043457 867.37261963 C-84.10942385 892.81951967 -73.84073667 918.37509285 -64.21972656 944.25427246 C-63.45610791 946.30521952 -62.68865369 948.35466738 -61.91906738 950.40338135 C-58.66882437 959.06564063 -55.50625743 967.75745239 -52.39465332 976.47027588 C-52.10199585 977.2876825 -51.80933838 978.10508911 -51.5078125 978.94726562 C-30.68752389 1037.14508363 -12.83291643 1096.28765264 2.62487793 1156.12750244 C2.82051331 1156.88277222 3.01614868 1157.63804199 3.2177124 1158.41619873 C3.58030654 1159.81823993 3.94090645 1161.22079899 4.2991333 1162.6239624 C5.20662798 1166.13489474 5.20662798 1166.13489474 6.60534668 1169.47027588 C7.26534668 1169.47027588 7.92534668 1169.47027588 8.60534668 1169.47027588 C12.5291813 1155.84358089 16.34823025 1142.19141596 20.09857178 1128.51605225 C25.34353982 1109.41722576 30.7483229 1090.391604 36.60534668 1071.47027588 C37.00788569 1070.16223048 37.41022397 1068.8541233 37.81237793 1067.54595947 C56.56158167 1006.63280397 77.55059504 946.2413237 102.46472168 887.55230713 C105.02513149 881.51722139 107.44277065 875.42640805 109.83215332 869.32183838 C111.42969433 865.27408918 113.12193279 861.29479866 114.94128418 857.34136963 C117.8164222 851.08236919 120.44538551 844.72696707 123.07998657 838.36453247 C130.32597465 820.90158245 138.11591248 804.10196424 147.26550293 787.54840088 C150.62088387 781.46959415 153.88351815 775.34253661 157.14440918 769.21276855 C162.78456369 758.61849206 168.57950775 748.12964357 174.58190918 737.73590088 C177.96541722 731.86996406 181.25001914 725.94992142 184.54284668 720.03277588 C190.56141721 709.24145654 196.78848378 698.58676509 203.11657715 687.97467041 C205.40217046 684.12986617 207.65839002 680.26797339 209.91784668 676.40777588 C212.83508931 671.42958987 215.80915428 666.49567235 218.85534668 661.59527588 C221.71956419 656.9737297 224.37128319 652.28716694 226.94128418 647.49761963 C228.92763407 643.88395492 231.00753819 640.33256099 233.10534668 636.78277588 C233.5228418 636.0759668 233.94033691 635.36915771 234.3704834 634.64093018 C235.2807255 633.10027601 236.19104854 631.55966966 237.10144043 630.019104 C245.39040295 615.97092726 253.58312615 601.88021881 261.43737793 587.58404541 C262.59658244 585.48613726 263.77026899 583.39705585 264.94909668 581.31011963 C316.47352678 489.91484218 347.52852409 384.81282762 318.55065918 280.7144165 C306.84837446 240.55430304 287.9585079 203.02176629 261.60534668 170.47027588 C260.79839355 169.45836182 259.99144043 168.44644775 259.16003418 167.40386963 C252.45071789 159.18825221 245.01630523 151.67067713 237.54284668 144.15777588 C237.03614441 143.64580658 236.52944214 143.13383728 236.00738525 142.60635376 C229.21064634 135.75507939 222.17421925 129.47677691 214.60534668 123.47027588 C213.43140392 122.49384446 212.26032244 121.51395026 211.09362793 120.52886963 C194.92443484 107.08895174 176.95380242 95.69342308 158.60534668 85.47027588 C157.56724854 84.88052979 157.56724854 84.88052979 156.50817871 84.27886963 C117.34366037 62.13814669 72.32926254 48.62466616 27.60534668 44.47027588 C26.91166992 44.4011499 26.21799316 44.33202393 25.5032959 44.26080322 C21.20481527 43.84254285 16.92126141 43.61284363 12.60534668 43.47027588 C11.43576416 43.42942871 11.43576416 43.42942871 10.24255371 43.38775635 C-48.57224743 41.61158287 -108.38643366 58.56365376 -158.39465332 89.47027588 Z M355.60534668 472.47027588 C355.93534668 473.13027588 356.26534668 473.79027588 356.60534668 474.47027588 C356.93534668 473.81027588 357.26534668 473.15027588 357.60534668 472.47027588 C356.94534668 472.47027588 356.28534668 472.47027588 355.60534668 472.47027588 Z M308.60534668 585.47027588 C308.93534668 586.13027588 309.26534668 586.79027588 309.60534668 587.47027588 C309.93534668 586.81027588 310.26534668 586.15027588 310.60534668 585.47027588 C309.94534668 585.47027588 309.28534668 585.47027588 308.60534668 585.47027588 Z M301.60534668 598.47027588 C301.93534668 599.13027588 302.26534668 599.79027588 302.60534668 600.47027588 C302.93534668 599.81027588 303.26534668 599.15027588 303.60534668 598.47027588 C302.94534668 598.47027588 302.28534668 598.47027588 301.60534668 598.47027588 Z M213.60534668 750.47027588 C213.93534668 751.13027588 214.26534668 751.79027588 214.60534668 752.47027588 C214.93534668 751.81027588 215.26534668 751.15027588 215.60534668 750.47027588 C214.94534668 750.47027588 214.28534668 750.47027588 213.60534668 750.47027588 Z " fill="#D53632" transform="translate(358.3946533203125,-0.47027587890625)"/>
<path d="M0 0 C0.66837891 0.1556543 1.33675781 0.31130859 2.02539062 0.47167969 C36.9385988 8.79304852 64.05392169 30.93877147 82.80664062 61.01318359 C91.59780206 75.64953215 96.98008697 91.18643018 100 108 C100.185625 109.00289063 100.37125 110.00578125 100.5625 111.0390625 C102.37892776 127.48422095 102.13084787 144.92815871 98 161 C97.83902832 161.6408252 97.67805664 162.28165039 97.51220703 162.94189453 C91.8370111 184.91760521 80.6493114 203.69425775 65 220 C64.16984375 220.89332031 63.3396875 221.78664063 62.484375 222.70703125 C45.01976576 240.96316518 22.53152524 252.52095807 -2 258 C-3.14855469 258.26425781 -4.29710937 258.52851563 -5.48046875 258.80078125 C-23.35509941 262.06484424 -43.37034006 261.32158412 -61 257 C-61.65935547 256.83902832 -62.31871094 256.67805664 -62.99804688 256.51220703 C-86.81312121 250.41793653 -107.35732834 237.66465765 -124.6015625 220.39453125 C-125.94597181 219.05231154 -127.30326127 217.72177866 -128.703125 216.4375 C-148.95773909 197.61503034 -160.65121832 164.85044122 -162.12426758 137.71044922 C-163.2285538 103.85706786 -153.22960145 69.01045521 -130.1875 43.4375 C-129.12595703 42.32181641 -129.12595703 42.32181641 -128.04296875 41.18359375 C-125.93514135 38.98910054 -125.93514135 38.98910054 -123.94921875 36.421875 C-105.53348093 13.54059755 -73.3271275 2.46652803 -45.6171875 -2.62109375 C-30.39907263 -4.21521593 -14.86249167 -3.66060382 0 0 Z " fill="#570001" transform="translate(395,235)"/>
<path d="M0 0 C0.66 0 1.32 0 2 0 C1.67 0.99 1.34 1.98 1 3 C0.34 3 -0.32 3 -1 3 C-0.67 2.01 -0.34 1.02 0 0 Z M-2 3 C-1.34 3.66 -0.68 4.32 0 5 C-0.66 5 -1.32 5 -2 5 C-2 4.34 -2 3.68 -2 3 Z M-3 5 C-3 8 -3 8 -4.75 10.04296875 C-5.4925 10.75066406 -6.235 11.45835938 -7 12.1875 C-7.7425 12.90292969 -8.485 13.61835937 -9.25 14.35546875 C-10.11625 15.16951172 -10.11625 15.16951172 -11 16 C-11.66 15.67 -12.32 15.34 -13 15 C-9.7 11.7 -6.4 8.4 -3 5 Z " fill="#D83733" transform="translate(99,111)"/>
<path d="" fill="#000000" transform="translate(0,0)"/>
<path d="" fill="#000000" transform="translate(0,0)"/>
<path d="" fill="#000000" transform="translate(0,0)"/>
<path d="" fill="#000000" transform="translate(0,0)"/>
<path d="" fill="#000000" transform="translate(0,0)"/>
<path d="" fill="#570001" transform="translate(0,0)"/>
<path d="" fill="#570001" transform="translate(0,0)"/>
<path d="" fill="#570001" transform="translate(0,0)"/>
<path d="" fill="#570001" transform="translate(0,0)"/>
<path d="" fill="#570001" transform="translate(0,0)"/>
<path d="" fill="#570001" transform="translate(0,0)"/>
<path d="" fill="#570001" transform="translate(0,0)"/>
<path d="" fill="#000000" transform="translate(0,0)"/>
<path d="" fill="#000000" transform="translate(0,0)"/>
</svg>
