<?xml version="1.0"?>
<svg xmlns="http://www.w3.org/2000/svg" xmlns:xlink="http://www.w3.org/1999/xlink" version="1.1" id="Capa_1" x="0px" y="0px" viewBox="0 0 512 512" style="enable-background:new 0 0 512 512;" xml:space="preserve" width="512px" height="512px"><g><g>
	<g>
		<path d="M511.555,277.797l-70.71-70.711l-42.427,42.426l-7.071-7.071l-0.901,0.901v42.427l0.901-0.901l42.426,42.426    l-21.213,21.213l-21.213-21.213l-0.901-0.901v42.427l0.901,0.901l-0.901,0.901v42.427l28.67-28.67l57.084-57.084l-7.071-7.071    L511.555,277.797z M447.915,299.01l-28.284-28.284l21.213-21.213l28.284,28.284L447.915,299.01z" data-original="#000000" class="active-path" data-old_color="#000000" fill="#FFFFFF"/>
	</g>
</g><g>
	<g>
		<path d="M0.445,0v76h52.58c6.192-17.459,22.865-30,42.42-30c24.813,0,45,20.187,45,45s-20.187,45-45,45    c-19.555,0-36.228-12.541-42.42-30H0.445v80h52.58c6.192-17.459,22.865-30,42.42-30c24.813,0,45,20.187,45,45s-20.187,45-45,45    c-19.555,0-36.228-12.541-42.42-30H0.445v80h52.58c6.192-17.459,22.865-30,42.42-30c24.813,0,45,20.187,45,45s-20.187,45-45,45    c-19.555,0-36.228-12.541-42.42-30H0.445v80h52.58c6.192-17.459,22.865-30,42.42-30c24.813,0,45,20.187,45,45s-20.187,45-45,45    c-19.555,0-36.228-12.541-42.42-30H0.445v76h206.196v-84.853l121.066-121.066l21.213-21.213l41.525-41.525V0H0.445z M333.659,207    l-90.213,90.213V369h-30v-84.213L261.232,237h-85l98-98h-94.787v-30h167.213l-98,98H333.659z" data-original="#000000" class="active-path" data-old_color="#000000" fill="#FFFFFF"/>
	</g>
</g><g>
	<g>
		<polygon points="370.134,306.081 390.445,326.393 390.445,285.77   " data-original="#000000" class="active-path" data-old_color="#000000" fill="#FFFFFF"/>
	</g>
</g><g>
	<g>
		<polygon points="291.494,512 390.445,512 390.445,413.049   " data-original="#000000" class="active-path" data-old_color="#000000" fill="#FFFFFF"/>
	</g>
</g><g>
	<g>
		<polygon points="370.133,348.508 348.92,327.294 236.641,439.574 236.641,482 279.067,482 390.445,370.622 390.445,368.82   " data-original="#000000" class="active-path" data-old_color="#000000" fill="#FFFFFF"/>
	</g>
</g><g>
	<g>
		<path d="M95.445,406c-8.271,0-15,6.729-15,15s6.729,15,15,15s15-6.729,15-15S103.716,406,95.445,406z" data-original="#000000" class="active-path" data-old_color="#000000" fill="#FFFFFF"/>
	</g>
</g><g>
	<g>
		<path d="M95.445,186c-8.271,0-15,6.729-15,15s6.729,15,15,15s15-6.729,15-15S103.716,186,95.445,186z" data-original="#000000" class="active-path" data-old_color="#000000" fill="#FFFFFF"/>
	</g>
</g><g>
	<g>
		<path d="M95.445,76c-8.271,0-15,6.729-15,15s6.729,15,15,15s15-6.729,15-15S103.716,76,95.445,76z" data-original="#000000" class="active-path" data-old_color="#000000" fill="#FFFFFF"/>
	</g>
</g><g>
	<g>
		<path d="M95.445,296c-8.271,0-15,6.729-15,15s6.729,15,15,15s15-6.729,15-15S103.716,296,95.445,296z" data-original="#000000" class="active-path" data-old_color="#000000" fill="#FFFFFF"/>
	</g>
</g></g> </svg>
