<?xml version="1.0" encoding="iso-8859-1"?>
<!-- Generator: Adobe Illustrator 19.0.0, SVG Export Plug-In . SVG Version: 6.00 Build 0)  -->
<svg version="1.1" id="Capa_1" xmlns="http://www.w3.org/2000/svg" xmlns:xlink="http://www.w3.org/1999/xlink" x="0px" y="0px"
	 viewBox="0 0 512 512" style="enable-background:new 0 0 512 512;" xml:space="preserve">
<circle style="fill:#FE9700;" cx="256" cy="256" r="256"/>
<path style="fill:#F47C00;" d="M512,256c0-5.043-0.162-10.048-0.45-15.019L411.401,140.832L133.032,405.5l105.921,105.921
	C244.589,511.792,250.27,512,256,512C397.385,512,512,397.385,512,256z"/>
<path style="fill:#FFFFFF;" d="M435,256c0-98.859-80.141-179-179-179S77,157.141,77,256c0,53.874,23.804,102.185,61.463,135h235.074
	C411.196,358.185,435,309.874,435,256z"/>
<path style="fill:#E6E6E6;" d="M256,77c-0.143,0-0.285,0.005-0.429,0.005V391h117.966C411.196,358.185,435,309.874,435,256
	C435,157.141,354.859,77,256,77z"/>
<rect x="170.67" y="323.67" style="fill:#FBD747;" width="170.67" height="41.33"/>
<rect x="255.57" y="323.67" style="fill:#E9BA13;" width="85.76" height="41.33"/>
<circle style="fill:#788F9B;" cx="256" cy="256" r="27"/>
<path style="fill:#607D8A;" d="M330.071,196.071l-14.143-14.143l-49.263,49.264C263.393,229.784,259.789,229,256,229
	c-0.144,0-0.285,0.009-0.429,0.011v53.979c0.143,0.002,0.285,0.011,0.429,0.011c14.912,0,27-12.088,27-27
	c0-3.789-0.783-7.393-2.192-10.665L330.071,196.071z"/>
<path style="fill:#546E7A;" d="M256,62.5C149.304,62.5,62.5,149.304,62.5,256c0,55.951,24.215,109.141,66.437,145.932l4.095,3.568
	h245.937l4.095-3.568C425.285,365.141,449.5,311.951,449.5,256C449.5,149.304,362.696,62.5,256,62.5z M367.975,376.5h-223.95
	c-31.001-28.827-49.647-68.407-52.209-110.5h31.851v-20H91.813c2.281-37.84,17.408-72.266,41.072-98.971l22.471,22.471
	l14.142-14.143l-22.471-22.47c26.705-23.665,61.132-38.793,98.973-41.074v31.854h20V91.813c37.84,2.281,72.267,17.408,98.972,41.073
	l-22.469,22.468l14.142,14.143l22.469-22.469c23.664,26.705,38.792,61.132,41.073,98.971h-31.853v20h31.85
	C417.622,308.093,398.977,347.673,367.975,376.5z"/>
<path style="fill:#455A64;" d="M256,62.5c-0.143,0-0.285,0.005-0.429,0.005v61.161H266V91.813
	c37.84,2.281,72.267,17.408,98.972,41.073l-22.469,22.468l14.142,14.143l22.469-22.469c23.664,26.705,38.792,61.132,41.073,98.971
	h-31.853v20h31.85c-2.562,42.093-21.207,81.674-52.209,110.5H255.571v29h123.397l4.095-3.568
	C425.285,365.141,449.5,311.951,449.5,256C449.5,149.304,362.696,62.5,256,62.5z"/>
<g>
</g>
<g>
</g>
<g>
</g>
<g>
</g>
<g>
</g>
<g>
</g>
<g>
</g>
<g>
</g>
<g>
</g>
<g>
</g>
<g>
</g>
<g>
</g>
<g>
</g>
<g>
</g>
<g>
</g>
</svg>
