<?xml version="1.0"?>
<svg xmlns="http://www.w3.org/2000/svg" id="Layer_1" enable-background="new 0 0 512 512" height="512px" viewBox="0 0 512 512" width="512px"><g><g clip-rule="evenodd" fill-rule="evenodd"><path d="m37.673 510.129h95.954c3.316 0 6.009-2.721 6.009-6.009v-113.756l-54.681-4.252-53.264 4.252v113.756c.001 3.288 2.694 6.009 5.982 6.009z" fill="#b3e59f" data-original="#B3E59F"/><path d="m85.664 510.129h47.963c3.316 0 6.009-2.721 6.009-6.009 0-37.928 0-75.856 0-113.756-18 0-35.972 0-53.972 0z" fill="#95d6a4" data-original="#95D6A4"/><path d="m61.683 390.364h47.963v119.765h-47.963z" fill="#78c2a4" data-original="#78C2A4"/><path d="m82.801 295.657c1.672-3.061 4.082-2.977 5.698 0l51.137 94.707h-107.944z" fill="#ffe07d" data-original="#FFE07D"/><path d="m82.801 295.657c1.672-3.061 4.082-2.977 5.698 0l51.137 94.707h-29.99l-38.977-72.2z" fill="#ffd064" data-original="#FFD064"/><path d="m82.801 295.657c1.672-3.061 4.082-2.977 5.698 0l4.28 7.909 19.163 35.49h-52.555l8.476-15.704z" fill="#b3e59f" data-original="#B3E59F"/><path d="m395.352 510.129h61.995c3.317 0 6.01-2.721 6.01-6.009v-73.22l-37.163-4.507-36.85 4.507v73.22c-.001 3.288 2.72 6.009 6.008 6.009z" fill="#d68756" data-original="#D68756"/><path d="m211.496 510.129h89.009c3.288 0 6.009-2.721 6.009-6.009v-198.003c0-3.288-2.721-6.01-6.009-6.01h-89.009c-3.288 0-5.981 2.722-5.981 6.01v198.003c0 3.288 2.692 6.009 5.981 6.009z" fill="#ffe07d" data-original="#FFE07D"/><path d="m270.513 510.129h29.991c3.288 0 6.009-2.721 6.009-6.009v-198.003c0-3.288-2.721-6.01-6.009-6.01h-29.991c3.289 0 5.982 2.722 5.982 6.01v198.003c0 3.288-2.693 6.009-5.982 6.009z" fill="#ffd064" data-original="#FFD064"/><path d="m306.514 487.621v-14.995h-50.514c-4.139 0-7.483 3.345-7.483 7.483 0 4.139 3.345 7.512 7.483 7.512zm0-29.99v-15.024h-25.256c-4.139 0-7.512 3.373-7.512 7.512s3.373 7.512 7.512 7.512zm0-30.02v-14.995h-50.514c-4.139 0-7.483 3.373-7.483 7.512s3.345 7.483 7.483 7.483zm0-29.991v-14.995h-25.256c-4.139 0-7.512 3.345-7.512 7.483s3.373 7.512 7.512 7.512zm0-29.99v-15.024h-50.514c-4.139 0-7.483 3.373-7.483 7.512s3.345 7.512 7.483 7.512zm0-30.02v-14.995h-25.256c-4.139 0-7.512 3.373-7.512 7.512s3.373 7.483 7.512 7.483z" fill="#ffc250" data-original="#FFC250"/><path d="m464.604 28.886 5.442-5.471c3.6-3.572 9.468-3.572 13.039 0l7.653 7.682c3.6 3.572 3.6 9.439.028 13.039l-5.471 5.442c4.621 7.086 7.966 15.081 9.78 23.613h7.71c5.074 0 9.213 4.139 9.213 9.212v10.857c0 5.045-4.139 9.212-9.213 9.212h-7.71c-1.814 8.533-5.159 16.498-9.78 23.613l5.471 5.442c3.572 3.6 3.572 9.439 0 13.039l-7.682 7.654c-3.572 3.6-9.439 3.6-13.039 0l-5.442-5.443c-7.086 4.593-15.08 7.966-23.613 9.78v7.71c0 5.074-4.138 9.212-9.212 9.212h-10.856c-5.074 0-9.213-4.139-9.213-9.212v-7.71c-8.532-1.814-16.526-5.187-23.613-9.78l-5.443 5.443c-3.6 3.6-9.439 3.6-13.039 0l-7.654-7.654c-3.6-3.6-3.6-9.439 0-13.039l5.443-5.442c-4.592-7.115-7.966-15.081-9.78-23.613h-7.71c-5.074 0-9.212-4.167-9.212-9.212v-10.856c0-5.074 4.139-9.212 9.212-9.212h7.71c1.814-8.532 5.188-16.527 9.78-23.613l-5.443-5.442c-3.6-3.6-3.6-9.468 0-13.039l7.654-7.682c3.6-3.572 9.439-3.572 13.039 0l5.443 5.471c7.086-4.621 15.081-7.965 23.613-9.78v-7.711c0-5.074 4.139-9.212 9.213-9.212h10.856c5.074 0 9.212 4.139 9.212 9.212v7.711c8.534 1.813 16.528 5.158 23.614 9.779zm-340.7-.312 5.471-5.443c3.572-3.601 9.439-3.601 13.011 0l7.683 7.654c3.572 3.6 3.572 9.468 0 13.039l-5.471 5.471c4.621 7.087 7.994 15.053 9.78 23.585h7.739c5.045 0 9.212 4.167 9.212 9.241v10.829c0 5.074-4.167 9.212-9.212 9.212h-7.739c-1.786 8.561-5.159 16.527-9.78 23.613l5.471 5.471c3.572 3.571 3.572 9.439 0 13.011l-7.683 7.682c-3.571 3.572-9.439 3.572-13.011 0l-5.471-5.471c-7.086 4.621-15.052 7.994-23.613 9.78v7.739c0 5.046-4.139 9.212-9.213 9.212h-10.828c-5.074 0-9.241-4.167-9.241-9.212v-7.739c-8.533-1.786-16.499-5.159-23.585-9.78l-5.471 5.471c-3.572 3.572-9.439 3.572-13.04 0l-7.653-7.682c-3.601-3.572-3.601-9.439 0-13.011l5.442-5.471c-4.592-7.086-7.966-15.052-9.78-23.613h-7.71c-5.073 0-9.212-4.139-9.212-9.213v-10.828c0-5.074 4.139-9.241 9.213-9.241h7.71c1.814-8.532 5.188-16.498 9.78-23.585l-5.442-5.471c-3.601-3.571-3.601-9.439 0-13.039l7.653-7.654c3.6-3.601 9.468-3.601 13.04 0l5.471 5.443c7.086-4.592 15.052-7.966 23.585-9.78v-7.71c0-5.074 4.166-9.212 9.241-9.212h10.828c5.074 0 9.213 4.139 9.213 9.212v7.71c8.56 1.814 16.525 5.188 23.612 9.78zm-38.24 27.298c17.461 0 31.635 14.174 31.635 31.664 0 17.461-14.174 31.635-31.635 31.635-17.49-.001-31.664-14.174-31.664-31.636 0-17.49 14.174-31.663 31.664-31.663zm208.576 63.979 5.471-5.442c3.571-3.6 9.439-3.6 13.039 0l7.654 7.653c3.6 3.6 3.6 9.468 0 13.039l-5.443 5.471c4.593 7.086 7.966 15.053 9.78 23.585h7.71c5.074 0 9.213 4.167 9.213 9.241v10.829c0 5.074-4.139 9.213-9.213 9.213h-7.71c-1.814 8.561-5.188 16.526-9.78 23.613l5.443 5.442c3.6 3.6 3.6 9.468 0 13.04l-7.654 7.682c-3.6 3.572-9.468 3.572-13.039 0l-5.471-5.471c-7.086 4.621-15.052 7.966-23.584 9.78v7.71c0 5.074-4.167 9.241-9.241 9.241h-10.828c-5.074 0-9.213-4.167-9.213-9.241v-7.71c-8.561-1.814-16.526-5.159-23.613-9.78l-5.443 5.471c-3.6 3.572-9.467 3.572-13.039 0l-7.683-7.682c-3.571-3.572-3.571-9.44 0-13.04l5.472-5.442c-4.621-7.087-7.966-15.052-9.78-23.613h-7.71c-5.074 0-9.241-4.139-9.241-9.213v-10.829c0-5.074 4.167-9.241 9.241-9.241h7.71c1.786-8.532 5.16-16.498 9.78-23.585l-5.472-5.471c-3.571-3.571-3.571-9.439 0-13.039l7.683-7.653c3.572-3.6 9.439-3.6 13.039 0l5.443 5.442c7.086-4.592 15.052-7.965 23.613-9.779v-7.711c0-5.074 4.139-9.212 9.213-9.212h10.828c5.074 0 9.241 4.138 9.241 9.212v7.711c8.532 1.813 16.497 5.186 23.584 9.779zm-38.24 27.297c17.49 0 31.664 14.173 31.664 31.663 0 17.462-14.174 31.635-31.664 31.635-17.461 0-31.635-14.173-31.635-31.635 0-17.489 14.174-31.663 31.635-31.663zm170.364-90.964c17.461 0 31.635 14.173 31.635 31.635 0 17.49-14.174 31.664-31.635 31.664-17.49 0-31.664-14.174-31.664-31.664.001-17.462 14.174-31.635 31.664-31.635z" fill="#407093" data-original="#407093"/><path d="m463.357 430.9h-30.02v73.22c0 3.288-2.693 6.009-5.981 6.009h29.991c3.317 0 6.01-2.721 6.01-6.009z" fill="#c47443" data-original="#C47443"/><path d="m389.343 430.9-29.793-49.522c-2.183-3.628-2.211-6.718-.142-10.347l63.979-111.941c1.644-2.863 4.28-2.891 5.953 0l63.951 111.941c2.098 3.657 1.984 6.831-.142 10.347l-29.792 49.522z" fill="#b1e4f9" data-original="#B1E4F9"/><path d="m429.34 259.09 63.951 111.941c2.098 3.657 1.984 6.831-.142 10.347l-29.792 49.522h-30.02l29.821-49.522c2.126-3.515 2.211-6.69.113-10.347l-41.017-71.831h7.086z" fill="#90d8f9" data-original="#90D8F9"/><path d="m418.852 267.027 4.535-7.937c1.644-2.863 4.28-2.891 5.924 0l4.536 7.937v90.852c0 4.167-3.345 7.512-7.483 7.512-4.167 0-7.512-3.345-7.512-7.512z" fill="#4a80aa" data-original="#4A80AA"/><path d="m426.364 393.879c11.282 0 20.494-9.185 20.494-20.495 0-11.282-9.212-20.495-20.494-20.495-11.311 0-20.523 9.213-20.523 20.495 0 11.31 9.213 20.495 20.523 20.495z" fill="#4a80aa" data-original="#4A80AA"/><path d="m411.709 19.106c31.521 7.002 55.049 35.121 55.049 68.712 0 33.62-23.528 61.74-55.049 68.741v7.71c0 5.074 4.139 9.212 9.213 9.212h10.856c5.074 0 9.212-4.139 9.212-9.212v-7.71c8.533-1.814 16.527-5.187 23.613-9.78l5.442 5.443c3.6 3.6 9.468 3.6 13.039 0l7.682-7.654c3.572-3.6 3.572-9.439 0-13.039l-5.471-5.442c4.621-7.115 7.966-15.081 9.78-23.613h7.71c5.074 0 9.213-4.167 9.213-9.212v-10.858c0-5.074-4.139-9.212-9.213-9.212h-7.71c-1.814-8.532-5.159-16.527-9.78-23.613l5.471-5.442c3.572-3.6 3.572-9.468-.028-13.039l-7.653-7.682c-3.572-3.572-9.439-3.572-13.039 0l-5.442 5.471c-7.086-4.621-15.08-7.965-23.613-9.78v-7.711c0-5.074-4.138-9.212-9.212-9.212h-10.856c-5.074 0-9.213 4.139-9.213 9.212v7.71zm-340.7-.312c31.521 7.002 55.049 35.122 55.049 68.741s-23.528 61.74-55.049 68.712v7.739c0 5.046 4.166 9.212 9.241 9.212h10.828c5.074 0 9.213-4.167 9.213-9.212v-7.739c8.561-1.786 16.526-5.159 23.613-9.78l5.471 5.471c3.572 3.572 9.439 3.572 13.011 0l7.683-7.682c3.572-3.572 3.572-9.439 0-13.011l-5.471-5.471c4.621-7.086 7.994-15.052 9.78-23.613h7.739c5.045 0 9.212-4.139 9.212-9.212v-10.828c0-5.074-4.167-9.241-9.212-9.241h-7.739c-1.786-8.532-5.159-16.498-9.78-23.585l5.471-5.471c3.572-3.571 3.572-9.439 0-13.039l-7.683-7.654c-3.571-3.601-9.439-3.601-13.011 0l-5.471 5.443c-7.086-4.592-15.052-7.966-23.613-9.78v-7.71c0-5.074-4.139-9.212-9.213-9.212h-10.828c-5.074 0-9.241 4.139-9.241 9.212zm170.364 91.277c31.493 7.001 55.021 35.121 55.021 68.74 0 33.62-23.528 61.74-55.021 68.713v7.71c0 5.074 4.139 9.241 9.213 9.241h10.828c5.074 0 9.241-4.167 9.241-9.241v-7.71c8.533-1.814 16.498-5.159 23.584-9.78l5.471 5.471c3.571 3.572 9.439 3.572 13.039 0l7.654-7.682c3.6-3.572 3.6-9.44 0-13.04l-5.443-5.442c4.593-7.087 7.966-15.052 9.78-23.613h7.71c5.074 0 9.213-4.139 9.213-9.213v-10.829c0-5.074-4.139-9.241-9.213-9.241h-7.71c-1.814-8.532-5.188-16.498-9.78-23.585l5.443-5.471c3.6-3.571 3.6-9.439 0-13.039l-7.654-7.653c-3.6-3.6-9.468-3.6-13.039 0l-5.471 5.442c-7.086-4.592-15.052-7.965-23.584-9.779v-7.711c0-5.074-4.167-9.212-9.241-9.212h-10.828c-5.074 0-9.213 4.138-9.213 9.212z" fill="#365e7d" data-original="#365E7D" class="active-path" style="fill:#365E7D"/></g></g> </svg>
