<?xml version="1.0" encoding="iso-8859-1"?>
<!-- Generator: Adobe Illustrator 19.0.0, SVG Export Plug-In . SVG Version: 6.00 Build 0)  -->
<svg version="1.1" id="Capa_1" xmlns="http://www.w3.org/2000/svg" xmlns:xlink="http://www.w3.org/1999/xlink" x="0px" y="0px"
	 viewBox="0 0 512.002 512.002" style="enable-background:new 0 0 512.002 512.002;" xml:space="preserve">
<g>
	<g>
		<path d="M416.002,0h-320c-27.57,0-50,22.43-50,50v412.002c0,27.57,22.43,50,50,50h320c27.569,0,49.999-22.43,49.999-50V50
			C466.001,22.43,443.572,0,416.002,0z M446.001,462.002c0,16.542-13.457,30-29.999,30h-320c-16.542,0-30-13.458-30-30V50
			c0-16.542,13.458-30,30-30h320c16.542,0,29.999,13.458,29.999,30V462.002z"/>
	</g>
</g>
<g>
	<g>
		<path d="M256.003,106.446h-19.684c-5.523,0-10,4.477-10,10v39.365v25.959c0,5.523,4.477,10,10,10s10-4.477,10-10v-15.959h9.684
			c16.367,0,29.682-13.315,29.682-29.682S272.37,106.446,256.003,106.446z M256.002,145.811h-9.684v-19.365h9.684
			c5.339,0,9.682,4.344,9.682,9.683C265.684,141.468,261.341,145.811,256.002,145.811z"/>
	</g>
</g>
<g>
	<g>
		<path d="M256.002,52.608c-53.21,0-96.5,43.29-96.5,96.501c0,53.209,43.29,96.499,96.5,96.499c53.21,0,96.5-43.289,96.5-96.499
			C352.502,95.899,309.212,52.608,256.002,52.608z M256.002,225.607c-42.182,0-76.5-34.317-76.5-76.499
			c0-42.182,34.318-76.5,76.5-76.5s76.5,34.318,76.5,76.5C332.502,191.29,298.184,225.607,256.002,225.607z"/>
	</g>
</g>
<g>
	<g>
		<path d="M336.002,300.653h-160c-27.57,0-49.999,22.43-49.999,50c0,24.147,17.205,44.348,40,48.994v64.506
			c0,3.466,1.794,6.685,4.743,8.506c2.948,1.822,6.629,1.988,9.73,0.438l15.528-7.764l15.528,7.764c2.816,1.407,6.129,1.407,8.944,0
			l15.528-7.764l15.528,7.764c2.816,1.407,6.129,1.407,8.944,0l15.528-7.764l15.528,7.764c2.815,1.407,6.129,1.407,8.944,0
			l15.528-7.764l15.528,7.764c1.412,0.706,2.943,1.056,4.472,1.056c1.829,0,3.652-0.501,5.258-1.494
			c2.948-1.822,4.743-5.04,4.743-8.506v-64.506c22.792-4.645,39.996-24.847,39.996-48.994
			C386.001,323.083,363.572,300.653,336.002,300.653z M326.002,390.654v57.32l-5.528-2.764c-2.815-1.407-6.129-1.407-8.944,0
			l-15.528,7.764l-15.528-7.764c-1.408-0.704-2.94-1.056-4.472-1.056s-3.064,0.352-4.472,1.056l-15.528,7.764l-15.528-7.764
			c-2.815-1.407-6.129-1.407-8.944,0l-15.528,7.764l-15.528-7.764c-2.815-1.407-6.129-1.407-8.944,0l-5.528,2.764v-57.32v-30h140
			V390.654z M346.002,378.94v-28.286c0-5.523-4.477-10-10-10h-160c-1.726,0-3.35,0.438-4.767,1.207
			c-3.117,1.693-5.233,4.996-5.233,8.792v28.287c-11.641-4.127-20-15.249-20-28.286c0-16.542,13.458-30,29.999-30h160.001
			c16.542,0,29.999,13.458,29.999,30C366.001,363.691,357.643,374.813,346.002,378.94z"/>
	</g>
</g>
<g>
	<g>
		<path d="M295.301,397.402h-47.625c-5.523,0-10,4.477-10,10s4.477,10,10,10h47.625c5.523,0,10-4.477,10-10
			S300.824,397.402,295.301,397.402z"/>
	</g>
</g>
<g>
	<g>
		<path d="M216.959,397.406h-0.256c-5.523,0-10,4.477-10,10s4.477,10,10,10h0.256c5.523,0,10-4.477,10-10
			S222.483,397.406,216.959,397.406z"/>
	</g>
</g>
<g>
</g>
<g>
</g>
<g>
</g>
<g>
</g>
<g>
</g>
<g>
</g>
<g>
</g>
<g>
</g>
<g>
</g>
<g>
</g>
<g>
</g>
<g>
</g>
<g>
</g>
<g>
</g>
<g>
</g>
</svg>
