<svg height="512" viewBox="0 0 512 512" width="512" xmlns="http://www.w3.org/2000/svg"><path d="m192 136v120a64 64 0 0 1 -64 64h-40a63.927 63.927 0 0 1 -64-64v-120a64 64 0 0 1 64-64h40a63.992 63.992 0 0 1 64 64z" fill="#e0e0de"/><path d="m192 136v120a64 64 0 0 1 -64 64h-40a64.032 64.032 0 0 1 -59.02-39.19c56.46-26.64 120.78-80.43 145.67-188.63a63.769 63.769 0 0 1 17.35 43.82z" fill="#d6d6d4"/><rect fill="#4db7e5" height="104" rx="32" transform="matrix(0 1 -1 0 304 88)" width="184" x="16" y="144"/><path d="m72 256v-120a32.036 32.036 0 0 1 32-32h-16a32.036 32.036 0 0 0 -32 32v120a32.036 32.036 0 0 0 32 32h16a32.036 32.036 0 0 1 -32-32z" fill="#48add9"/><path d="m128 104h-40a32.036 32.036 0 0 0 -32 32h104a32.036 32.036 0 0 0 -32-32z" fill="#c7c7c5"/><path d="m104 104h-16a32.036 32.036 0 0 0 -32 32h16a32.036 32.036 0 0 1 32-32z" fill="#bfbfbd"/><path d="m160 248h-48a16 16 0 0 1 -16-16 16 16 0 0 1 16-16h16a24 24 0 0 1 24-24h8z" fill="#ebebe9"/><path d="m390 280.005h-.182a33.282 33.282 0 0 1 -21.818-31.246v-32.759h-80v32.759a33.282 33.282 0 0 1 -21.818 31.246h-.182l-42 8v207.995h208v-208z" fill="#fec9a3"/><path d="m368 235.873v-19.873h-80v19.873a71.963 71.963 0 0 0 80 0z" fill="#feb784"/><path d="m390 280.005h-.182a33.178 33.178 0 0 1 -17.379-14.818l-44.439 14.813-44.439-14.813a33.178 33.178 0 0 1 -17.379 14.818h-.182l-42 8v207.995h208v-208z" fill="#d6d6d4"/><path d="m285.657 332.933 42.343-52.928-48-16-14 16h.182z" fill="#ebebe9"/><path d="m370.343 332.933-42.343-52.928 48-16 14 16h-.182z" fill="#ebebe9"/><path d="m328 280.005-16 20v104.517l16 43.483 16-43.483v-104.517z" fill="#348fd9"/><path d="m328 280.005-16 20v104.517l16 43.483 16-43.483v-104.517z" fill="#348fd9"/><path d="m408 112h-8v48h8a24 24 0 0 0 24-24 24 24 0 0 0 -24-24z" fill="#feb784"/><path d="m248.4 112h-.4a24.071 24.071 0 0 0 -24 24 24.071 24.071 0 0 0 24 24h8v-48z" fill="#feb784"/><path d="m400 104.01v55.99a72 72 0 1 1 -144 0v-55.99a72 72 0 0 1 72-72c.54 0 1.09.01 1.63.02a72 72 0 0 1 70.37 71.98z" fill="#fec9a3"/><path d="m400 104.01v55.99a72 72 0 0 1 -82.64 71.21 87.977 87.977 0 0 0 49.64-79.21v-48a88.042 88.042 0 0 0 -37.37-71.97 72 72 0 0 1 70.37 71.98z" fill="#fec093"/><path d="m376 48h-67.186c-6.3 8.747-14.8 20.157-24.392 32h91.578z" fill="#fec093"/><path d="m256 112v-48c0-26.514 17.909-32 40-32h24s-32 48-64 80z" fill="#f27900"/><path d="m259.071 48c-1.971 4.213-3.071 9.462-3.071 16v16h28.422c9.6-11.843 18.1-23.253 24.392-32z" fill="#e67007"/><path d="m400 112v-48c0-26.514-17.909-32-40-32h-24s32 48 64 80z" fill="#f27900"/><path d="m320.934 164.562h-16.934v16h16.934a114.927 114.927 0 0 0 33.386-4.9l-4.64-15.312a98.963 98.963 0 0 1 -28.746 4.212z" fill="#f7a468"/><circle cx="292" cy="124.004" fill="#7a432a" r="12"/><circle cx="364" cy="124.004" fill="#7a432a" r="12"/><path d="m400 64h-128a20 20 0 0 1 -20-20 20 20 0 0 1 20-20h88a40 40 0 0 1 40 40z" fill="#f98500"/><g fill="#f27900"><path d="m361.627 24.164c-.552-.022-1.07-.164-1.627-.164h-17.325l24.925 40h18.85z"/><path d="m272 24a19.859 19.859 0 0 0 -8.2 1.8l23.8 38.2h18.85l-24.925-40z"/><path d="m302.675 24 24.923 40h18.85l-24.923-40z"/></g><path d="m168 337.63v158.37h56v-208l-14.788 2.112a48 48 0 0 0 -41.212 47.518z" fill="#e0e0de"/><path d="m488 337.63v158.37h-56v-208l14.79 2.11a47.988 47.988 0 0 1 41.21 47.52z" fill="#e0e0de"/><path d="m488 337.63v158.37h-56v-142.81a255.862 255.862 0 0 0 35.64-54.81 47.961 47.961 0 0 1 20.36 39.25z" fill="#d6d6d4"/><path d="m432 288v208h-208v-208l42-8h.18l56.05 152.33 5.77 15.67 9.17-24.93 52.65-143.07h.18z" fill="#49648e"/><path d="m432 323.13v172.87h-208v-21.56c32.21-9.76 66.23-23.32 98.23-42.11l5.77 15.67 9.17-24.93c37.59-24.59 71.41-57.07 94.83-99.94z" fill="#425b82"/><path d="m320 440.004h16v55.996h-16z" fill="#3c5174"/><path d="m368 416h64v32h-64z" fill="#ffb531"/><path d="m368 432h64v16h-64z" fill="#ffa912"/><path d="m328 280.005-16 20v19.995l16-24 16 24v-19.995z" fill="#3086cd"/><path d="m108.364 448-4.364 48h64v-48z" fill="#ebebe9"/><path d="m168 408h-56l-3.636 40h59.636z" fill="#ebebe9"/><path d="m168 349.17v58.83h-68.67a47.168 47.168 0 0 1 -5.32-.3 47.717 47.717 0 0 1 -16.14-4.77l-13.03-6.51a16 16 0 0 1 -8.84-14.31v-33.4a9.6 9.6 0 0 1 13.89-8.59l7.98 3.98a47.867 47.867 0 0 0 21.46 5.07h36.67l-7.32-14.65a15.561 15.561 0 1 1 28.37-12.73l5.44 13.59z" fill="#fec9a3"/><path d="m168 349.17v58.83h-68.67a47.168 47.168 0 0 1 -5.32-.3c27.39-17.37 52.06-40.79 68.48-72.32z" fill="#fec093"/></svg>