<svg id="svg" version="1.1" xmlns="http://www.w3.org/2000/svg" xmlns:xlink="http://www.w3.org/1999/xlink" width="400" height="400" viewBox="0, 0, 400,400"><g id="svgg"><path id="path0" d="M96.200 24.385 C 77.174 30.126,77.038 56.309,96.000 63.011 C 98.874 64.027,114.762 64.104,238.800 63.699 L 330.600 63.400 330.704 43.500 L 330.807 23.600 214.704 23.631 C 103.852 23.660,98.491 23.694,96.200 24.385 M190.772 141.100 L 180.944 141.214 180.492 143.707 C 180.244 145.078,179.856 147.416,179.630 148.902 C 179.403 150.388,179.018 152.908,178.773 154.502 C 178.528 156.096,178.298 157.658,178.263 157.974 C 178.228 158.289,177.346 158.842,176.304 159.202 C 175.262 159.562,174.287 159.979,174.138 160.129 C 173.989 160.278,173.457 160.400,172.957 160.400 C 172.457 160.400,171.936 160.580,171.800 160.800 C 171.664 161.020,171.248 161.201,170.876 161.202 C 170.504 161.203,167.976 162.283,165.258 163.602 C 158.940 166.667,160.809 167.247,149.463 158.707 C 147.738 157.409,146.084 156.254,145.788 156.140 C 145.321 155.961,118.400 182.343,118.400 182.980 C 118.400 183.215,121.221 187.269,121.615 187.600 C 121.746 187.710,122.463 188.696,123.208 189.791 C 123.954 190.886,124.785 192.056,125.056 192.391 C 129.043 197.326,128.992 196.755,126.003 202.884 C 124.685 205.588,123.605 208.104,123.603 208.476 C 123.601 208.848,123.420 209.264,123.200 209.400 C 122.980 209.536,122.800 210.051,122.800 210.544 C 122.800 211.037,122.651 211.611,122.470 211.820 C 122.288 212.029,121.902 212.956,121.612 213.881 C 120.976 215.907,122.410 215.521,107.000 217.814 C 106.120 217.945,104.995 218.134,104.500 218.234 L 103.600 218.415 103.600 237.555 L 103.600 256.695 105.100 256.966 C 109.230 257.710,114.067 258.465,118.975 259.132 C 120.902 259.393,120.967 259.447,121.604 261.295 C 121.963 262.338,122.379 263.313,122.529 263.462 C 122.678 263.611,122.800 264.143,122.800 264.643 C 122.800 265.143,122.980 265.664,123.200 265.800 C 123.420 265.936,123.600 266.316,123.600 266.645 C 123.600 267.153,126.823 274.344,128.015 276.495 C 128.634 277.612,128.472 278.354,127.262 279.923 C 126.637 280.736,125.277 282.570,124.240 284.000 C 123.204 285.430,122.140 286.870,121.878 287.200 C 120.754 288.611,118.400 292.021,118.400 292.237 C 118.400 292.824,145.304 319.244,145.725 319.071 C 146.131 318.905,147.680 317.787,154.400 312.810 C 154.950 312.403,156.257 311.424,157.303 310.635 C 159.298 309.132,159.958 308.949,161.105 309.585 C 163.089 310.684,170.435 313.933,172.000 314.403 C 172.990 314.701,173.980 315.059,174.200 315.200 C 174.420 315.341,175.369 315.698,176.309 315.995 C 177.482 316.365,178.069 316.795,178.180 317.367 C 178.495 318.988,179.156 323.039,179.591 326.000 C 179.833 327.650,180.237 330.125,180.489 331.500 L 180.947 334.000 200.073 334.000 L 219.200 334.000 219.200 332.680 C 219.200 331.954,219.364 331.189,219.565 330.980 C 219.765 330.771,220.028 329.610,220.148 328.400 C 220.269 327.190,220.550 325.030,220.773 323.600 C 220.997 322.170,221.319 320.029,221.490 318.841 C 221.674 317.558,222.043 316.570,222.400 316.404 C 222.730 316.250,223.403 315.916,223.895 315.662 C 224.387 315.408,225.116 315.200,225.515 315.200 C 225.914 315.200,226.411 315.057,226.620 314.882 C 226.829 314.707,227.720 314.332,228.600 314.048 C 230.531 313.427,232.473 312.619,234.538 311.576 C 235.384 311.149,236.329 310.800,236.638 310.800 C 236.947 310.800,237.200 310.620,237.200 310.400 C 237.200 310.180,237.560 310.000,238.000 310.000 C 238.440 310.000,238.800 309.820,238.800 309.600 C 238.800 308.692,241.232 309.223,242.463 310.400 C 243.154 311.060,243.962 311.600,244.259 311.600 C 244.557 311.600,244.801 311.735,244.803 311.900 C 244.804 312.065,245.479 312.644,246.303 313.188 C 248.778 314.820,253.791 318.570,253.933 318.896 C 254.007 319.063,254.235 319.200,254.440 319.200 C 254.833 319.200,281.600 292.592,281.600 292.202 C 281.600 291.879,277.062 285.828,276.700 285.667 C 276.535 285.593,276.400 285.278,276.400 284.967 C 276.400 284.655,276.220 284.400,276.000 284.400 C 275.780 284.400,275.600 284.170,275.600 283.888 C 275.600 283.607,275.240 283.117,274.800 282.800 C 274.360 282.483,274.000 281.993,274.000 281.712 C 274.000 281.430,273.820 281.200,273.600 281.200 C 273.380 281.200,273.200 280.970,273.200 280.688 C 273.200 280.407,272.840 279.917,272.400 279.600 C 271.562 278.996,271.238 276.400,272.000 276.400 C 272.220 276.400,272.400 276.040,272.400 275.600 C 272.400 275.160,272.580 274.800,272.800 274.800 C 273.020 274.800,273.200 274.440,273.200 274.000 C 273.200 273.560,273.380 273.200,273.600 273.200 C 273.820 273.200,274.000 272.840,274.000 272.400 C 274.000 271.960,274.180 271.600,274.400 271.600 C 274.620 271.600,274.800 271.240,274.800 270.800 C 274.800 270.360,274.980 270.000,275.200 270.000 C 275.420 270.000,275.600 269.651,275.600 269.224 C 275.600 268.797,275.780 268.336,276.000 268.200 C 276.220 268.064,276.400 267.524,276.400 267.000 C 276.400 266.476,276.580 265.936,276.800 265.800 C 277.020 265.664,277.200 265.143,277.200 264.643 C 277.200 264.143,277.322 263.611,277.471 263.462 C 277.621 263.313,278.037 262.338,278.396 261.295 C 279.045 259.409,279.058 259.399,281.024 259.276 C 282.111 259.208,283.171 258.983,283.380 258.776 C 283.589 258.569,284.793 258.400,286.056 258.400 C 287.319 258.400,288.464 258.220,288.600 258.000 C 288.736 257.780,289.906 257.600,291.200 257.600 C 292.494 257.600,293.664 257.420,293.800 257.200 C 293.936 256.980,294.577 256.800,295.224 256.800 L 296.400 256.800 296.400 237.642 L 296.400 218.484 294.900 218.254 C 294.075 218.127,292.230 217.838,290.800 217.612 C 289.370 217.385,287.210 217.098,286.000 216.974 C 284.790 216.849,283.440 216.584,283.000 216.384 C 282.560 216.185,281.491 215.972,280.624 215.911 C 279.133 215.806,279.013 215.698,278.395 213.905 C 278.037 212.862,277.621 211.887,277.471 211.738 C 277.322 211.589,277.200 211.057,277.200 210.557 C 277.200 210.057,277.020 209.536,276.800 209.400 C 276.580 209.264,276.400 208.713,276.400 208.176 C 276.400 207.639,276.220 207.200,276.000 207.200 C 275.780 207.200,275.600 206.851,275.600 206.424 C 275.600 205.997,275.420 205.536,275.200 205.400 C 274.980 205.264,274.800 204.803,274.800 204.376 C 274.800 203.949,274.620 203.600,274.400 203.600 C 274.180 203.600,274.000 203.240,274.000 202.800 C 274.000 202.360,273.820 202.000,273.600 202.000 C 273.380 202.000,273.200 201.640,273.200 201.200 C 273.200 200.760,273.020 200.400,272.800 200.400 C 272.580 200.400,272.400 200.040,272.400 199.600 C 272.400 199.160,272.220 198.800,272.000 198.800 C 271.143 198.800,271.642 196.553,272.800 195.200 C 273.459 194.430,273.999 193.663,273.999 193.496 C 274.000 193.329,274.540 192.628,275.200 191.937 C 275.860 191.246,276.400 190.478,276.400 190.229 C 276.400 189.980,276.760 189.517,277.200 189.200 C 277.640 188.883,278.000 188.463,278.000 188.267 C 278.000 188.070,278.813 186.828,279.808 185.505 C 281.335 183.474,281.536 183.002,281.108 182.465 C 280.419 181.604,255.952 157.138,255.107 156.466 C 254.428 155.925,253.156 156.616,250.625 158.900 C 250.198 159.285,249.701 159.600,249.521 159.600 C 249.340 159.600,248.628 160.140,247.937 160.800 C 247.246 161.460,246.526 162.000,246.337 162.000 C 246.148 162.000,245.428 162.540,244.737 163.200 C 244.046 163.860,243.278 164.400,243.029 164.400 C 242.780 164.400,242.317 164.760,242.000 165.200 C 241.396 166.038,238.800 166.362,238.800 165.600 C 238.800 165.380,238.440 165.200,238.000 165.200 C 237.560 165.200,237.200 165.020,237.200 164.800 C 237.200 164.580,236.948 164.400,236.641 164.400 C 236.333 164.400,235.055 163.860,233.800 163.200 C 232.545 162.540,231.267 162.000,230.959 162.000 C 230.652 162.000,230.400 161.820,230.400 161.600 C 230.400 161.380,229.961 161.200,229.424 161.200 C 228.887 161.200,228.336 161.020,228.200 160.800 C 228.064 160.580,227.524 160.400,227.000 160.400 C 226.476 160.400,225.936 160.220,225.800 160.000 C 225.664 159.780,225.224 159.600,224.822 159.600 C 222.934 159.600,221.811 158.491,221.490 156.308 C 221.319 155.149,221.008 153.120,220.798 151.800 C 220.589 150.480,220.243 148.230,220.031 146.800 C 219.413 142.630,219.118 141.419,218.645 141.106 C 218.225 140.828,214.194 140.827,190.772 141.100 M206.506 201.060 C 207.775 201.190,208.911 201.455,209.030 201.649 C 209.149 201.842,209.676 202.000,210.200 202.000 C 210.724 202.000,211.264 202.180,211.400 202.400 C 211.536 202.620,212.070 202.800,212.586 202.800 C 213.411 202.800,216.658 204.222,217.200 204.821 C 217.310 204.942,218.036 205.337,218.813 205.698 C 219.590 206.059,220.670 206.745,221.213 207.223 C 221.756 207.700,222.830 208.565,223.600 209.145 C 228.486 212.826,233.611 220.276,235.193 226.000 C 235.467 226.990,235.836 228.160,236.014 228.600 C 237.261 231.691,237.261 243.509,236.014 246.600 C 235.836 247.040,235.470 248.210,235.199 249.200 C 234.718 250.961,233.234 254.403,232.785 254.800 C 232.660 254.910,232.244 255.676,231.860 256.501 C 231.476 257.327,230.761 258.407,230.272 258.901 C 229.783 259.396,228.939 260.430,228.398 261.200 C 227.162 262.957,225.511 264.606,223.200 266.390 C 222.210 267.154,221.310 267.898,221.200 268.043 C 220.505 268.960,213.658 272.280,211.751 272.625 C 210.898 272.779,210.020 273.016,209.800 273.151 C 207.741 274.417,196.662 274.802,192.600 273.749 C 191.280 273.407,189.703 273.033,189.095 272.918 C 188.487 272.802,187.892 272.549,187.771 272.354 C 187.651 272.159,187.228 272.000,186.832 272.000 C 186.435 272.000,184.801 271.280,183.200 270.400 C 181.599 269.520,180.210 268.800,180.113 268.800 C 179.617 268.800,173.790 263.698,172.495 262.130 C 171.673 261.135,170.508 259.753,169.906 259.060 C 169.305 258.367,168.810 257.690,168.806 257.555 C 168.803 257.421,168.121 256.071,167.292 254.555 C 166.462 253.040,165.541 250.990,165.245 250.000 C 164.949 249.010,164.560 247.750,164.379 247.200 C 162.139 240.374,163.179 228.118,166.516 222.000 C 166.936 221.230,167.663 219.880,168.132 219.000 C 173.227 209.432,184.795 202.010,196.485 200.809 C 199.647 200.484,201.304 200.525,206.506 201.060 " stroke="none" fill="#f5dab2" fill-rule="evenodd"></path><path id="path1" d="M92.100 0.293 C 91.165 0.377,90.400 0.616,90.400 0.823 C 90.400 1.030,89.781 1.200,89.024 1.200 C 88.267 1.200,87.536 1.380,87.400 1.600 C 87.264 1.820,86.803 2.000,86.376 2.000 C 85.949 2.000,85.600 2.180,85.600 2.400 C 85.600 2.620,85.060 2.800,84.400 2.800 C 83.740 2.800,83.200 2.980,83.200 3.200 C 83.200 3.420,82.840 3.600,82.400 3.600 C 81.960 3.600,81.600 3.780,81.600 4.000 C 81.600 4.220,81.240 4.400,80.800 4.400 C 80.360 4.400,80.000 4.580,80.000 4.800 C 80.000 5.020,79.764 5.200,79.475 5.200 C 79.187 5.200,78.564 5.560,78.092 6.000 C 77.620 6.440,77.115 6.800,76.970 6.800 C 76.824 6.800,76.118 7.295,75.400 7.900 C 74.681 8.505,73.496 9.450,72.766 10.000 C 70.569 11.655,66.800 15.646,66.800 16.316 C 66.800 16.485,66.440 16.883,66.000 17.200 C 65.560 17.517,65.200 18.007,65.200 18.288 C 65.200 18.570,65.054 18.800,64.875 18.800 C 64.696 18.800,64.302 19.430,64.000 20.200 C 63.698 20.970,63.304 21.600,63.125 21.600 C 62.946 21.600,62.800 21.960,62.800 22.400 C 62.800 22.840,62.620 23.200,62.400 23.200 C 62.180 23.200,62.000 23.560,62.000 24.000 C 62.000 24.440,61.820 24.800,61.600 24.800 C 61.380 24.800,61.200 25.160,61.200 25.600 C 61.200 26.040,61.020 26.400,60.800 26.400 C 60.580 26.400,60.400 26.730,60.400 27.133 C 60.400 27.537,60.274 27.992,60.121 28.146 C 59.557 28.709,58.421 33.862,58.411 35.900 C 58.405 37.055,58.220 38.000,58.000 38.000 C 57.761 38.000,57.600 39.533,57.600 41.800 C 57.600 44.067,57.761 45.600,58.000 45.600 C 58.220 45.600,58.400 46.422,58.400 47.428 C 58.400 57.043,66.631 71.898,75.567 78.411 C 79.156 81.026,85.329 84.400,86.526 84.400 C 86.809 84.400,87.211 84.557,87.420 84.749 C 88.138 85.409,94.605 86.774,98.969 87.187 C 101.861 87.460,143.758 87.600,222.869 87.600 L 342.400 87.600 342.400 75.200 L 342.400 62.800 336.680 62.800 C 333.534 62.800,330.789 62.960,330.580 63.156 C 329.702 63.978,98.421 63.875,96.000 63.052 C 76.731 56.498,77.138 30.092,96.600 24.135 C 99.045 23.386,294.350 23.140,330.100 23.840 L 342.400 24.081 342.400 12.041 L 342.400 0.000 218.100 0.070 C 149.735 0.108,93.035 0.209,92.100 0.293 " stroke="none" fill="#9e764f" fill-rule="evenodd"></path><path id="path2" d="M57.900 46.630 C 57.481 47.054,57.522 361.504,57.941 361.763 C 58.128 361.879,58.389 363.249,58.519 364.807 C 58.758 367.657,60.280 373.285,60.879 373.533 C 61.055 373.607,61.200 374.012,61.200 374.433 C 61.200 374.855,61.380 375.200,61.600 375.200 C 61.820 375.200,62.000 375.560,62.000 376.000 C 62.000 376.440,62.180 376.800,62.400 376.800 C 62.620 376.800,62.800 377.160,62.800 377.600 C 62.800 378.040,62.958 378.400,63.151 378.400 C 63.345 378.400,63.727 378.940,64.000 379.600 C 64.273 380.260,64.655 380.800,64.849 380.800 C 65.042 380.800,65.200 381.067,65.200 381.393 C 65.200 382.379,72.806 390.603,74.113 391.029 C 74.505 391.157,75.262 391.698,75.795 392.231 C 76.328 392.764,76.937 393.200,77.148 393.200 C 77.360 393.200,77.593 393.335,77.667 393.500 C 77.834 393.876,79.964 395.175,80.900 395.471 C 81.285 395.593,81.600 395.852,81.600 396.047 C 81.600 396.241,81.960 396.400,82.400 396.400 C 82.840 396.400,83.200 396.580,83.200 396.800 C 83.200 397.020,83.740 397.200,84.400 397.200 C 85.060 397.200,85.600 397.380,85.600 397.600 C 85.600 397.820,85.949 398.000,86.376 398.000 C 86.803 398.000,87.264 398.180,87.400 398.400 C 87.536 398.620,88.252 398.800,88.990 398.800 C 89.729 398.800,90.408 399.025,90.500 399.300 C 90.632 399.696,102.035 399.823,145.333 399.911 L 200.000 400.022 200.000 367.211 L 200.000 334.400 190.264 334.400 L 180.528 334.400 180.086 332.300 C 179.843 331.145,179.460 328.940,179.234 327.400 C 179.008 325.860,178.710 323.880,178.571 323.000 C 178.432 322.120,178.193 320.461,178.040 319.314 C 177.694 316.725,178.086 317.042,173.168 315.370 C 170.889 314.595,167.758 313.365,166.212 312.637 C 164.665 311.908,162.550 310.910,161.510 310.417 L 159.620 309.521 154.910 313.024 C 152.320 314.951,149.283 317.219,148.163 318.064 C 147.043 318.909,145.864 319.600,145.544 319.600 C 144.856 319.600,118.258 293.103,118.075 292.236 C 117.956 291.672,118.861 290.355,125.336 281.679 C 127.743 278.454,128.058 277.841,127.699 277.079 C 127.472 276.596,126.464 274.490,125.460 272.400 C 124.455 270.310,122.978 266.710,122.177 264.400 C 120.596 259.843,120.423 259.615,118.531 259.606 C 117.832 259.603,116.392 259.429,115.331 259.219 C 114.269 259.010,112.050 258.640,110.400 258.398 C 108.750 258.156,106.455 257.774,105.300 257.550 L 103.200 257.143 103.200 237.611 L 103.200 218.080 105.100 217.664 C 106.145 217.436,108.530 217.043,110.400 216.791 C 112.270 216.538,114.555 216.167,115.477 215.966 C 116.400 215.765,117.750 215.597,118.477 215.594 C 120.429 215.585,120.589 215.378,122.177 210.800 C 122.978 208.490,124.455 204.890,125.460 202.800 C 126.464 200.710,127.473 198.602,127.703 198.115 C 128.057 197.363,127.876 196.910,126.507 195.115 C 122.371 189.693,118.000 183.457,118.000 182.978 C 118.000 182.475,143.302 156.934,144.931 155.793 C 145.617 155.313,145.878 155.380,147.154 156.358 C 149.302 158.007,155.937 162.882,158.019 164.343 L 159.838 165.619 163.219 163.998 C 165.079 163.107,167.292 162.022,168.138 161.589 C 168.984 161.155,169.983 160.800,170.358 160.800 C 170.733 160.800,171.211 160.652,171.420 160.472 C 171.629 160.292,173.110 159.720,174.710 159.201 C 177.805 158.198,177.736 158.282,178.175 155.000 C 178.293 154.120,178.564 152.230,178.778 150.800 C 178.992 149.370,179.345 146.932,179.562 145.382 C 179.780 143.832,180.143 142.077,180.369 141.482 L 180.780 140.400 190.390 140.400 L 200.000 140.400 200.000 114.000 L 200.000 87.600 150.500 87.597 C 95.370 87.593,95.227 87.587,87.805 84.999 C 72.160 79.544,60.095 64.687,58.462 48.864 C 58.318 47.469,58.065 46.464,57.900 46.630 M195.400 201.471 C 192.524 201.653,186.694 203.407,184.007 204.899 C 183.233 205.329,181.880 206.067,181.000 206.540 C 180.120 207.013,179.310 207.492,179.200 207.605 C 179.090 207.719,178.010 208.618,176.800 209.604 C 166.076 218.343,161.356 232.939,164.808 246.689 C 165.555 249.665,169.147 257.604,170.241 258.698 C 170.528 258.985,171.444 260.070,172.276 261.110 C 173.821 263.039,174.300 263.495,177.800 266.373 C 182.724 270.423,192.519 273.997,198.700 273.999 L 200.000 274.000 200.000 237.600 L 200.000 201.200 198.700 201.272 C 197.985 201.312,196.500 201.401,195.400 201.471 " stroke="none" fill="#fb9c04" fill-rule="evenodd"></path><path id="path3" d="M200.000 114.000 L 200.000 140.400 209.610 140.400 L 219.220 140.400 219.673 141.500 C 219.923 142.105,220.265 143.590,220.434 144.800 C 220.602 146.010,220.948 148.350,221.202 150.000 C 221.456 151.650,221.747 153.720,221.849 154.600 C 221.952 155.480,222.117 156.592,222.218 157.071 C 222.403 157.953,224.374 159.200,225.581 159.200 C 225.944 159.200,226.411 159.343,226.620 159.518 C 226.829 159.693,227.720 160.065,228.600 160.345 C 230.846 161.058,231.288 161.250,235.949 163.539 C 240.276 165.663,240.512 165.687,242.332 164.187 C 245.807 161.322,253.970 155.616,254.602 155.609 C 255.703 155.597,282.002 181.898,281.994 183.002 C 281.991 183.441,280.463 185.834,278.599 188.320 C 276.735 190.806,274.635 193.686,273.932 194.720 C 273.228 195.754,272.476 196.719,272.260 196.864 C 272.030 197.019,272.797 199.007,274.113 201.664 C 275.348 204.159,276.807 207.550,277.357 209.200 C 279.462 215.526,279.256 215.294,283.200 215.792 C 284.190 215.917,286.125 216.195,287.500 216.410 C 288.875 216.624,291.125 216.951,292.500 217.135 C 295.207 217.498,296.434 217.899,296.894 218.571 C 297.056 218.807,297.191 227.499,297.194 237.886 L 297.200 256.772 296.324 257.241 C 295.843 257.498,294.268 257.859,292.824 258.042 C 291.381 258.225,289.030 258.560,287.600 258.787 C 286.170 259.013,284.190 259.300,283.200 259.423 C 279.255 259.914,279.473 259.672,277.387 265.879 C 276.855 267.462,275.435 270.777,274.231 273.245 L 272.041 277.732 273.721 280.150 C 274.644 281.480,276.882 284.555,278.694 286.984 C 280.506 289.413,281.991 291.721,281.994 292.113 C 282.002 293.020,255.458 319.600,254.544 319.600 C 254.176 319.600,252.957 318.907,251.837 318.059 C 250.717 317.212,247.664 314.943,245.054 313.019 L 240.307 309.519 236.054 311.598 C 233.714 312.741,230.990 313.935,230.000 314.251 C 229.010 314.567,227.887 315.000,227.505 315.213 C 227.123 315.426,226.459 315.600,226.029 315.600 C 225.599 315.600,225.136 315.780,225.000 316.000 C 224.864 316.220,224.425 316.400,224.025 316.400 C 222.874 316.400,222.245 317.508,221.898 320.149 C 221.721 321.497,221.415 323.680,221.219 325.000 C 221.023 326.320,220.750 328.300,220.613 329.400 C 220.476 330.500,220.163 332.075,219.918 332.900 L 219.472 334.400 209.736 334.400 L 200.000 334.400 200.000 367.200 L 200.000 400.000 271.200 400.000 L 342.400 400.000 342.400 243.800 L 342.400 87.600 271.200 87.600 L 200.000 87.600 200.000 114.000 M200.000 237.428 L 200.000 274.000 200.900 273.993 C 207.623 273.939,217.394 270.402,222.351 266.227 C 223.413 265.332,224.726 264.240,225.269 263.800 C 225.811 263.360,226.533 262.591,226.871 262.091 C 227.210 261.592,228.098 260.512,228.844 259.691 C 229.590 258.871,230.634 257.390,231.164 256.400 C 233.476 252.081,234.376 250.154,234.387 249.495 C 234.394 249.107,234.562 248.477,234.761 248.095 C 236.914 243.952,236.914 231.248,234.761 227.105 C 234.562 226.723,234.400 226.127,234.400 225.780 C 234.400 225.015,231.969 219.854,231.520 219.667 C 231.344 219.593,231.200 219.359,231.200 219.145 C 231.200 217.036,220.649 206.423,218.533 206.404 C 218.277 206.402,218.007 206.265,217.933 206.100 C 217.860 205.935,216.900 205.375,215.800 204.856 C 214.700 204.337,213.487 203.752,213.105 203.556 C 212.723 203.360,212.136 203.200,211.800 203.200 C 211.464 203.200,210.877 203.042,210.495 202.849 C 208.934 202.061,206.822 201.600,204.769 201.600 C 203.573 201.600,202.011 201.433,201.297 201.228 L 200.000 200.856 200.000 237.428 " stroke="none" fill="#fc742c" fill-rule="evenodd"></path><path id="path4" d="M126.300 23.500 C 139.775 23.558,161.825 23.558,175.300 23.500 C 188.775 23.442,177.750 23.394,150.800 23.394 C 123.850 23.394,112.825 23.442,126.300 23.500 M180.369 141.482 C 180.143 142.077,179.780 143.832,179.562 145.382 C 179.345 146.932,178.992 149.370,178.778 150.800 C 178.564 152.230,178.293 154.120,178.175 155.000 C 177.736 158.282,177.805 158.198,174.710 159.201 C 173.110 159.720,171.629 160.292,171.420 160.472 C 171.211 160.652,170.733 160.800,170.358 160.800 C 169.983 160.800,168.984 161.155,168.138 161.589 C 167.292 162.022,165.079 163.107,163.219 163.998 L 159.838 165.619 158.019 164.343 C 155.937 162.882,149.302 158.007,147.154 156.358 C 145.878 155.380,145.617 155.313,144.931 155.793 C 143.302 156.934,118.000 182.475,118.000 182.978 C 118.000 183.457,122.371 189.693,126.507 195.115 C 127.876 196.910,128.057 197.363,127.703 198.115 C 127.473 198.602,126.464 200.710,125.460 202.800 C 124.455 204.890,122.978 208.490,122.177 210.800 C 120.589 215.378,120.429 215.585,118.477 215.594 C 117.750 215.597,116.400 215.765,115.477 215.966 C 114.555 216.167,112.270 216.538,110.400 216.791 C 108.530 217.043,106.145 217.436,105.100 217.664 L 103.200 218.080 103.200 237.611 L 103.200 257.143 105.300 257.550 C 106.455 257.774,108.750 258.156,110.400 258.398 C 112.050 258.640,114.269 259.010,115.331 259.219 C 116.392 259.429,117.832 259.603,118.531 259.606 C 120.423 259.615,120.596 259.843,122.177 264.400 C 122.978 266.710,124.455 270.310,125.460 272.400 C 126.464 274.490,127.472 276.596,127.699 277.079 C 128.058 277.841,127.743 278.454,125.336 281.679 C 118.861 290.355,117.956 291.672,118.075 292.236 C 118.258 293.103,144.856 319.600,145.544 319.600 C 145.864 319.600,147.043 318.909,148.163 318.064 C 149.283 317.219,152.320 314.951,154.910 313.024 L 159.620 309.521 161.510 310.417 C 162.550 310.910,164.665 311.908,166.212 312.637 C 167.758 313.365,170.889 314.595,173.168 315.370 C 178.106 317.049,177.688 316.696,178.075 319.514 C 178.380 321.729,178.898 325.310,179.391 328.600 C 179.522 329.480,179.832 331.145,180.079 332.300 L 180.528 334.400 200.000 334.400 L 219.472 334.400 219.918 332.900 C 220.163 332.075,220.476 330.500,220.613 329.400 C 220.750 328.300,221.023 326.320,221.219 325.000 C 221.415 323.680,221.721 321.497,221.898 320.149 C 222.245 317.508,222.874 316.400,224.025 316.400 C 224.425 316.400,224.864 316.220,225.000 316.000 C 225.136 315.780,225.599 315.600,226.029 315.600 C 226.459 315.600,227.123 315.426,227.505 315.213 C 227.887 315.000,229.010 314.567,230.000 314.251 C 230.990 313.935,233.714 312.741,236.054 311.598 L 240.307 309.519 245.054 313.019 C 247.664 314.943,250.717 317.212,251.837 318.059 C 252.957 318.907,254.176 319.600,254.544 319.600 C 255.458 319.600,282.002 293.020,281.994 292.113 C 281.991 291.721,280.506 289.413,278.694 286.984 C 276.882 284.555,274.644 281.480,273.721 280.150 L 272.041 277.732 274.231 273.245 C 275.435 270.777,276.855 267.462,277.387 265.879 C 279.473 259.672,279.255 259.914,283.200 259.423 C 284.190 259.300,286.170 259.013,287.600 258.787 C 289.030 258.560,291.381 258.225,292.824 258.042 C 294.268 257.859,295.843 257.498,296.324 257.241 L 297.200 256.772 297.194 237.886 C 297.191 227.499,297.056 218.807,296.894 218.571 C 296.429 217.892,295.198 217.496,292.400 217.127 C 290.970 216.938,288.720 216.611,287.400 216.401 C 286.080 216.191,284.190 215.917,283.200 215.792 C 279.256 215.294,279.462 215.526,277.357 209.200 C 276.807 207.550,275.348 204.159,274.113 201.664 C 272.797 199.007,272.030 197.019,272.260 196.864 C 272.476 196.719,273.228 195.754,273.932 194.720 C 274.635 193.686,276.735 190.806,278.599 188.320 C 280.463 185.834,281.991 183.439,281.994 182.998 C 282.002 181.894,255.698 155.597,254.598 155.609 C 253.969 155.616,245.796 161.331,242.332 164.187 C 240.512 165.687,240.276 165.663,235.949 163.539 C 231.288 161.250,230.846 161.058,228.600 160.345 C 227.720 160.065,226.829 159.693,226.620 159.518 C 226.411 159.343,225.944 159.200,225.581 159.200 C 224.374 159.200,222.403 157.953,222.218 157.071 C 222.117 156.592,221.952 155.480,221.849 154.600 C 221.747 153.720,221.456 151.650,221.202 150.000 C 220.948 148.350,220.602 146.010,220.434 144.800 C 220.265 143.590,219.923 142.105,219.673 141.500 L 219.220 140.400 200.000 140.400 L 180.780 140.400 180.369 141.482 M218.645 141.106 C 219.118 141.419,219.413 142.630,220.031 146.800 C 220.243 148.230,220.589 150.480,220.798 151.800 C 221.008 153.120,221.319 155.149,221.490 156.308 C 221.811 158.491,222.934 159.600,224.822 159.600 C 225.224 159.600,225.664 159.780,225.800 160.000 C 225.936 160.220,226.476 160.400,227.000 160.400 C 227.524 160.400,228.064 160.580,228.200 160.800 C 228.336 161.020,228.887 161.200,229.424 161.200 C 229.961 161.200,230.400 161.380,230.400 161.600 C 230.400 161.820,230.652 162.000,230.959 162.000 C 231.267 162.000,232.545 162.540,233.800 163.200 C 235.055 163.860,236.333 164.400,236.641 164.400 C 236.948 164.400,237.200 164.580,237.200 164.800 C 237.200 165.020,237.560 165.200,238.000 165.200 C 238.440 165.200,238.800 165.380,238.800 165.600 C 238.800 166.362,241.396 166.038,242.000 165.200 C 242.317 164.760,242.780 164.400,243.029 164.400 C 243.278 164.400,244.046 163.860,244.737 163.200 C 245.428 162.540,246.148 162.000,246.337 162.000 C 246.526 162.000,247.246 161.460,247.937 160.800 C 248.628 160.140,249.340 159.600,249.521 159.600 C 249.701 159.600,250.198 159.285,250.625 158.900 C 253.156 156.616,254.428 155.925,255.107 156.466 C 255.952 157.138,280.419 181.604,281.108 182.465 C 281.536 183.002,281.335 183.474,279.808 185.505 C 278.813 186.828,278.000 188.070,278.000 188.267 C 278.000 188.463,277.640 188.883,277.200 189.200 C 276.760 189.517,276.400 189.980,276.400 190.229 C 276.400 190.478,275.860 191.246,275.200 191.937 C 274.540 192.628,274.000 193.329,273.999 193.496 C 273.999 193.663,273.459 194.430,272.800 195.200 C 271.642 196.553,271.143 198.800,272.000 198.800 C 272.220 198.800,272.400 199.160,272.400 199.600 C 272.400 200.040,272.580 200.400,272.800 200.400 C 273.020 200.400,273.200 200.760,273.200 201.200 C 273.200 201.640,273.380 202.000,273.600 202.000 C 273.820 202.000,274.000 202.360,274.000 202.800 C 274.000 203.240,274.180 203.600,274.400 203.600 C 274.620 203.600,274.800 203.949,274.800 204.376 C 274.800 204.803,274.980 205.264,275.200 205.400 C 275.420 205.536,275.600 205.997,275.600 206.424 C 275.600 206.851,275.780 207.200,276.000 207.200 C 276.220 207.200,276.400 207.639,276.400 208.176 C 276.400 208.713,276.580 209.264,276.800 209.400 C 277.020 209.536,277.200 210.057,277.200 210.557 C 277.200 211.057,277.322 211.589,277.471 211.738 C 277.621 211.887,278.037 212.862,278.395 213.905 C 279.013 215.698,279.133 215.806,280.624 215.911 C 281.491 215.972,282.560 216.185,283.000 216.384 C 283.440 216.584,284.790 216.849,286.000 216.974 C 287.210 217.098,289.370 217.385,290.800 217.612 C 292.230 217.838,294.075 218.127,294.900 218.254 L 296.400 218.484 296.400 237.642 L 296.400 256.800 295.224 256.800 C 294.577 256.800,293.936 256.980,293.800 257.200 C 293.664 257.420,292.494 257.600,291.200 257.600 C 289.906 257.600,288.736 257.780,288.600 258.000 C 288.464 258.220,287.319 258.400,286.056 258.400 C 284.793 258.400,283.589 258.569,283.380 258.776 C 283.171 258.983,282.111 259.208,281.024 259.276 C 279.058 259.399,279.045 259.409,278.396 261.295 C 278.037 262.338,277.621 263.313,277.471 263.462 C 277.322 263.611,277.200 264.143,277.200 264.643 C 277.200 265.143,277.020 265.664,276.800 265.800 C 276.580 265.936,276.400 266.476,276.400 267.000 C 276.400 267.524,276.220 268.064,276.000 268.200 C 275.780 268.336,275.600 268.797,275.600 269.224 C 275.600 269.651,275.420 270.000,275.200 270.000 C 274.980 270.000,274.800 270.360,274.800 270.800 C 274.800 271.240,274.620 271.600,274.400 271.600 C 274.180 271.600,274.000 271.960,274.000 272.400 C 274.000 272.840,273.820 273.200,273.600 273.200 C 273.380 273.200,273.200 273.560,273.200 274.000 C 273.200 274.440,273.020 274.800,272.800 274.800 C 272.580 274.800,272.400 275.160,272.400 275.600 C 272.400 276.040,272.220 276.400,272.000 276.400 C 271.238 276.400,271.562 278.996,272.400 279.600 C 272.840 279.917,273.200 280.407,273.200 280.688 C 273.200 280.970,273.380 281.200,273.600 281.200 C 273.820 281.200,274.000 281.430,274.000 281.712 C 274.000 281.993,274.360 282.483,274.800 282.800 C 275.240 283.117,275.600 283.607,275.600 283.888 C 275.600 284.170,275.780 284.400,276.000 284.400 C 276.220 284.400,276.400 284.655,276.400 284.967 C 276.400 285.278,276.535 285.593,276.700 285.667 C 277.062 285.828,281.600 291.879,281.600 292.202 C 281.600 292.592,254.833 319.200,254.440 319.200 C 254.235 319.200,254.007 319.063,253.933 318.896 C 253.791 318.570,248.778 314.820,246.303 313.188 C 245.479 312.644,244.804 312.065,244.803 311.900 C 244.801 311.735,244.557 311.600,244.259 311.600 C 243.962 311.600,243.154 311.060,242.463 310.400 C 241.232 309.223,238.800 308.692,238.800 309.600 C 238.800 309.820,238.440 310.000,238.000 310.000 C 237.560 310.000,237.200 310.180,237.200 310.400 C 237.200 310.620,236.947 310.800,236.638 310.800 C 236.329 310.800,235.384 311.149,234.538 311.576 C 232.473 312.619,230.531 313.427,228.600 314.048 C 227.720 314.332,226.829 314.707,226.620 314.882 C 226.411 315.057,225.914 315.200,225.515 315.200 C 225.116 315.200,224.387 315.408,223.895 315.662 C 223.403 315.916,222.730 316.250,222.400 316.404 C 222.043 316.570,221.674 317.558,221.490 318.841 C 221.319 320.029,220.997 322.170,220.773 323.600 C 220.550 325.030,220.269 327.190,220.148 328.400 C 220.028 329.610,219.765 330.771,219.565 330.980 C 219.364 331.189,219.200 331.954,219.200 332.680 L 219.200 334.000 200.073 334.000 L 180.947 334.000 180.489 331.500 C 180.237 330.125,179.833 327.650,179.591 326.000 C 179.156 323.039,178.495 318.988,178.180 317.367 C 178.069 316.795,177.482 316.365,176.309 315.995 C 175.369 315.698,174.420 315.341,174.200 315.200 C 173.980 315.059,172.990 314.701,172.000 314.403 C 170.435 313.933,163.089 310.684,161.105 309.585 C 159.958 308.949,159.298 309.132,157.303 310.635 C 156.257 311.424,154.950 312.403,154.400 312.810 C 147.680 317.787,146.131 318.905,145.725 319.071 C 145.304 319.244,118.400 292.824,118.400 292.237 C 118.400 292.021,120.754 288.611,121.878 287.200 C 122.140 286.870,123.204 285.430,124.240 284.000 C 125.277 282.570,126.637 280.736,127.262 279.923 C 128.472 278.354,128.634 277.612,128.015 276.495 C 126.823 274.344,123.600 267.153,123.600 266.645 C 123.600 266.316,123.420 265.936,123.200 265.800 C 122.980 265.664,122.800 265.143,122.800 264.643 C 122.800 264.143,122.678 263.611,122.529 263.462 C 122.379 263.313,121.963 262.338,121.604 261.295 C 120.967 259.447,120.902 259.393,118.975 259.132 C 114.067 258.465,109.230 257.710,105.100 256.966 L 103.600 256.695 103.600 237.555 L 103.600 218.415 104.500 218.234 C 104.995 218.134,106.120 217.945,107.000 217.814 C 122.410 215.521,120.976 215.907,121.612 213.881 C 121.902 212.956,122.288 212.029,122.470 211.820 C 122.651 211.611,122.800 211.037,122.800 210.544 C 122.800 210.051,122.980 209.536,123.200 209.400 C 123.420 209.264,123.601 208.848,123.603 208.476 C 123.605 208.104,124.685 205.588,126.003 202.884 C 128.992 196.755,129.043 197.326,125.056 192.391 C 124.785 192.056,123.954 190.886,123.208 189.791 C 122.463 188.696,121.746 187.710,121.615 187.600 C 121.221 187.269,118.400 183.215,118.400 182.980 C 118.400 182.343,145.321 155.961,145.788 156.140 C 146.084 156.254,147.738 157.409,149.463 158.707 C 160.809 167.247,158.940 166.667,165.258 163.602 C 167.976 162.283,170.504 161.203,170.876 161.202 C 171.248 161.201,171.664 161.020,171.800 160.800 C 171.936 160.580,172.457 160.400,172.957 160.400 C 173.457 160.400,173.989 160.278,174.138 160.129 C 174.287 159.979,175.262 159.562,176.304 159.202 C 177.346 158.842,178.228 158.289,178.263 157.974 C 178.298 157.658,178.528 156.096,178.773 154.502 C 179.018 152.908,179.403 150.388,179.630 148.902 C 179.856 147.416,180.244 145.078,180.492 143.707 L 180.944 141.214 190.772 141.100 C 214.194 140.827,218.225 140.828,218.645 141.106 M196.485 200.809 C 184.795 202.010,173.227 209.432,168.132 219.000 C 167.663 219.880,166.936 221.230,166.516 222.000 C 163.179 228.118,162.139 240.374,164.379 247.200 C 164.560 247.750,164.949 249.010,165.245 250.000 C 165.541 250.990,166.462 253.040,167.292 254.555 C 168.121 256.071,168.803 257.421,168.806 257.555 C 168.810 257.690,169.305 258.367,169.906 259.060 C 170.508 259.753,171.673 261.135,172.495 262.130 C 173.790 263.698,179.617 268.800,180.113 268.800 C 180.210 268.800,181.599 269.520,183.200 270.400 C 184.801 271.280,186.435 272.000,186.832 272.000 C 187.228 272.000,187.651 272.159,187.771 272.354 C 187.892 272.549,188.487 272.802,189.095 272.918 C 189.703 273.033,191.280 273.407,192.600 273.749 C 196.662 274.802,207.741 274.417,209.800 273.151 C 210.020 273.016,210.898 272.779,211.751 272.625 C 213.658 272.280,220.505 268.960,221.200 268.043 C 221.310 267.898,222.210 267.154,223.200 266.390 C 225.511 264.606,227.162 262.957,228.398 261.200 C 228.939 260.430,229.783 259.396,230.272 258.901 C 230.761 258.407,231.476 257.327,231.860 256.501 C 232.244 255.676,232.660 254.910,232.785 254.800 C 233.234 254.403,234.718 250.961,235.199 249.200 C 235.470 248.210,235.836 247.040,236.014 246.600 C 237.261 243.509,237.261 231.691,236.014 228.600 C 235.836 228.160,235.467 226.990,235.193 226.000 C 233.611 220.276,228.486 212.826,223.600 209.145 C 222.830 208.565,221.756 207.700,221.213 207.223 C 220.670 206.745,219.590 206.059,218.813 205.698 C 218.036 205.337,217.310 204.942,217.200 204.821 C 216.658 204.222,213.411 202.800,212.586 202.800 C 212.070 202.800,211.536 202.620,211.400 202.400 C 211.264 202.180,210.724 202.000,210.200 202.000 C 209.676 202.000,209.149 201.842,209.030 201.649 C 208.824 201.314,206.912 201.042,202.000 200.646 C 200.790 200.548,198.308 200.621,196.485 200.809 M204.769 201.600 C 206.822 201.600,208.934 202.061,210.495 202.849 C 210.877 203.042,211.464 203.200,211.800 203.200 C 212.136 203.200,212.723 203.360,213.105 203.556 C 213.487 203.752,214.700 204.337,215.800 204.856 C 216.900 205.375,217.860 205.935,217.933 206.100 C 218.007 206.265,218.277 206.402,218.533 206.404 C 220.649 206.423,231.200 217.036,231.200 219.145 C 231.200 219.359,231.344 219.593,231.520 219.667 C 231.969 219.854,234.400 225.015,234.400 225.780 C 234.400 226.127,234.562 226.723,234.761 227.105 C 236.914 231.248,236.914 243.952,234.761 248.095 C 234.562 248.477,234.394 249.107,234.387 249.495 C 234.376 250.154,233.476 252.081,231.164 256.400 C 230.634 257.390,229.590 258.871,228.844 259.691 C 228.098 260.512,227.210 261.592,226.871 262.091 C 226.533 262.591,225.811 263.360,225.269 263.800 C 224.726 264.240,223.413 265.332,222.351 266.227 C 210.475 276.230,189.868 276.298,177.800 266.373 C 174.300 263.495,173.821 263.039,172.276 261.110 C 171.444 260.070,170.528 258.985,170.241 258.698 C 169.147 257.604,165.555 249.665,164.808 246.689 C 161.356 232.939,166.076 218.343,176.800 209.604 C 178.010 208.618,179.090 207.719,179.200 207.605 C 179.310 207.492,180.120 207.013,181.000 206.540 C 181.880 206.067,183.233 205.329,184.007 204.899 C 185.241 204.214,187.585 203.343,191.828 201.991 C 192.504 201.776,193.854 201.587,194.828 201.570 C 195.803 201.554,197.410 201.410,198.400 201.250 C 199.390 201.090,200.739 201.103,201.397 201.279 C 202.056 201.456,203.573 201.600,204.769 201.600 " stroke="none" fill="#fcbe68" fill-rule="evenodd"></path></g></svg>