<?xml version="1.0"?>
<svg xmlns="http://www.w3.org/2000/svg" xmlns:xlink="http://www.w3.org/1999/xlink" version="1.1" id="Capa_1" x="0px" y="0px" viewBox="0 0 507.52 507.52" style="enable-background:new 0 0 507.52 507.52;" xml:space="preserve" width="512px" height="512px"><g><polygon style="fill:#4B9FD8;" points="482.88,444.608 335.6,215.264 273.344,247.472 401.472,436.224 401.472,436.224 " data-original="#4B9FD8"/><polygon style="fill:#3789C9;" points="213.984,278.176 361.264,507.52 401.472,436.224 273.344,247.472 " data-original="#3789C9"/><polygon style="fill:#ED6362;" points="112.592,215.264 24.64,385.28 106.048,376.896 178.704,249.456 " data-original="#ED6362"/><polygon style="fill:#E95454;" points="106.048,376.896 106.048,376.896 146.256,448.192 234.208,278.176 178.704,249.456 " data-original="#E95454"/><polygon style="fill:#FFDB70;" points="406.256,182.16 374.016,222.336 381.872,273.264 333.824,291.888 315.2,339.936   264.288,332.08 224.096,364.32 183.904,332.08 132.992,339.936 114.368,291.872 66.32,273.264 74.176,222.336 41.936,182.16   74.176,141.968 66.32,91.056 114.368,72.432 132.992,24.384 183.904,32.24 224.096,0 264.288,32.24 315.2,24.384 333.824,72.432   381.872,91.056 374.016,141.968 " data-original="#FFDB70"/><path style="fill:#FFE28F;" d="M251.84,163.616H135.216c-7.92,0-14.496-6.576-14.496-14.496l0.176-1.008v-0.16  c-0.176-8.464,6.736-15.376,15.168-15.376h85.088c9.44,0,17.712-6.912,18.384-16.352c0.336-9.952-7.424-18.208-17.376-18.208  h-89.296c-8.432,0-14.496-6.912-14.496-15.344c0,0,0,0,0-0.176s0-0.176,0-0.176c0-8.256,6.064-15.344,14.496-15.344h74.624  c9.28,0,17.536-6.912,18.048-16.192c0.512-10.112-7.424-18.208-17.2-18.208h-78.528l-15.44,39.84L66.32,91.056l7.856,50.928  l-32.24,40.192l32.24,40.192L66.32,273.28l48.048,18.624l15.44,39.856h89.984c9.44,0,17.712-6.912,18.208-16.192  c0.512-9.952-7.424-18.208-17.2-18.208h-75.12c-9.952,0-17.872-8.256-17.376-18.208c0.512-9.28,8.944-16.352,18.208-16.352h71.76  c9.28-0.176,16.688-7.76,16.688-17.2c0-9.44-7.76-17.2-17.2-17.2h-88.272c-8.096,0-14.672-6.576-14.496-14.496v-1.344  c-0.512-7.76,5.728-14.496,13.664-14.496h122.176c9.44,0,17.712-6.912,18.384-16.192  C269.552,171.872,261.792,163.616,251.84,163.616z" data-original="#FFE28F"/><path style="fill:#FDBC4B;" d="M224.096,297.504c-63.6,0-115.344-51.744-115.344-115.344S160.496,66.816,224.096,66.816  S339.44,118.56,339.44,182.16S287.696,297.504,224.096,297.504z" data-original="#FDBC4B"/><path style="fill:#F9B444;" d="M204.432,79.28c-0.384,7.664,5.712,14.032,13.248,14.032h57.872c7.664,0,13.776,6.368,13.376,14.032  c-0.384,7.152-6.88,12.592-14.032,12.592h-55.28c-7.136,0.128-12.864,5.984-12.864,13.248c0,7.28,5.968,13.248,13.248,13.248h68.016  c6.24,0,11.296,5.072,11.168,11.168v1.04c0.384,5.984-4.416,11.168-10.528,11.168H194.56c-7.28,0-13.632,5.328-14.16,12.464  c-0.256,7.664,5.712,14.032,13.376,14.032h89.84c6.112,0,11.168,5.072,11.168,11.168l-0.128,0.784v0.128  c0.128,6.496-5.2,11.824-11.696,11.824h-65.552c-7.28,0-13.632,5.328-14.16,12.592c-0.256,7.664,5.712,14.032,13.376,14.032h68.784  c6.496,0,11.168,5.328,11.168,11.824c0,0,0,0,0,0.128s0,0.128,0,0.128c0,6.368-4.672,11.824-11.168,11.824H227.92  c-7.152,0-13.504,5.328-13.904,12.464c-0.384,7.792,5.712,14.032,13.248,14.032h1.472c61.424-2.48,110.672-53.088,110.672-115.104  c0-63.584-51.744-115.344-115.344-115.344c-2.64,0-5.232,0.224-7.824,0.4C209.984,68.176,204.768,72.896,204.432,79.28z" data-original="#F9B444"/><path style="fill:#FFFFFF" d="M199.824,240.224L199.824,240.224c-4.672,0-9.168-1.856-12.464-5.168l-32.32-32.32  c-6.88-6.88-6.88-18.048,0-24.928c6.88-6.88,18.064-6.88,24.928,0l19.856,19.856l68.384-68.4c6.88-6.88,18.048-6.88,24.928,0  c6.88,6.88,6.88,18.048,0,24.928l-80.848,80.864C208.992,238.352,204.512,240.224,199.824,240.224z" data-original="#FFFFFF" class="active-path" data-old_color="#FFFFFF"/></g> </svg>
