<svg width="659" height="106" viewBox="0 0 659 106" fill="none" xmlns="http://www.w3.org/2000/svg">
<path d="M419.559 78.3471H395.933V76.66C395.933 60.2076 395.921 43.7573 395.896 27.3091C396.122 25.8533 395.808 24.3653 395.015 23.1241C394.221 21.8829 393.002 20.9737 391.586 20.5669C390.585 20.2453 389.52 20.1759 388.486 20.365C387.451 20.554 386.48 20.9956 385.657 21.6505C382.664 24.0088 379.869 26.6195 377.037 29.2056C376.673 29.5381 376.655 30.3508 376.649 30.9419C376.649 46.13 376.649 61.318 376.649 76.506V78.3101H353.177V76.5984C353.177 60.2938 353.177 43.9646 353.109 27.6785C353.254 26.5704 353.128 25.4437 352.742 24.3949C352.356 23.3462 351.721 22.4066 350.893 21.6567C349.846 20.7569 348.524 20.2413 347.144 20.1954C345.765 20.1495 344.411 20.576 343.307 21.4042C340.093 23.8789 337.02 26.5306 334.102 29.3472C333.775 29.6427 333.806 30.4247 333.806 30.985C333.806 46.1279 333.806 61.2728 333.806 76.4198V78.3347H310.507V2.27964H333.745V12.3776C335.358 10.9183 336.768 9.72383 338.098 8.44927C341.336 5.27727 345.342 3.00025 349.724 1.84107C354.106 0.681889 358.714 0.680249 363.096 1.83631C365.816 2.29554 368.356 3.49956 370.433 5.31471C372.51 7.12986 374.043 9.48512 374.863 12.119C375.017 12.5685 375.177 13.0118 375.349 13.5106C377.665 11.4232 379.881 9.34823 382.178 7.35327C385.572 4.35464 389.704 2.31384 394.148 1.44056C398.593 0.56729 403.189 0.89303 407.466 2.38431C410.671 3.27476 413.516 5.14811 415.6 7.74058C417.685 10.333 418.904 13.514 419.085 16.8355C419.386 19.1343 419.536 21.4503 419.534 23.7687C419.571 41.3827 419.571 58.9946 419.534 76.6045V78.3409" fill="black"/>
<path d="M436.14 2.27783H459.495V12.499C461.508 10.6518 463.22 8.98314 465.036 7.43765C468.627 4.25397 473.041 2.14428 477.774 1.34948C482.507 0.554679 487.368 1.10681 491.802 2.94282C494.541 3.97879 496.939 5.75429 498.73 8.07185C500.52 10.3894 501.632 13.1582 501.943 16.0702C502.356 18.4472 502.562 20.8555 502.559 23.2681C502.62 31.1064 502.7 38.9446 502.516 46.7767C502.442 51.2194 501.393 55.5917 499.444 59.5846C497.495 63.5776 494.693 67.0939 491.236 69.8851C484.489 75.5311 475.932 78.5545 467.136 78.4007C464.63 78.4376 462.124 78.4007 459.501 78.4007V104.428H436.103L436.14 2.27783ZM459.501 60.409C461.699 60.409 463.774 60.4583 465.843 60.409C469.191 60.3085 472.385 58.9786 474.816 56.6732C477.246 54.3677 478.743 51.2481 479.019 47.9097C479.346 41.6354 479.223 35.3364 479.26 29.0498C479.245 27.8414 479.162 26.6348 479.013 25.4355C478.945 24.3139 478.518 23.2439 477.795 22.3836C477.072 21.5233 476.092 20.9181 474.999 20.6574C473.866 20.2798 472.659 20.1806 471.481 20.3682C470.302 20.5557 469.185 21.0246 468.226 21.7349C465.51 23.7299 463.054 26.082 460.468 28.2555C460.134 28.525 459.871 28.8714 459.7 29.265C459.53 29.6585 459.457 30.0875 459.489 30.5153C459.519 39.9975 459.489 49.4798 459.489 58.9682L459.501 60.409Z" fill="black"/>
<path d="M293.514 78.3487H270.067V68.1091C268.645 69.4452 267.494 70.5043 266.373 71.588C262.762 75.3389 258.114 77.9282 253.024 79.025C247.934 80.1217 242.633 79.6762 237.797 77.7453C235.421 76.9272 233.295 75.5131 231.622 73.6384C229.949 71.7636 228.784 69.491 228.241 67.0377C227.405 63.7706 226.959 60.4163 226.911 57.0444C226.763 49.1138 226.831 41.177 227.022 33.2464C227.228 25.7284 230.294 18.5721 235.593 13.2351C238.979 9.66491 243.075 6.84147 247.616 4.94565C252.157 3.04984 257.044 2.12346 261.964 2.22584C271.995 2.11501 282.019 2.22584 292.049 2.18274C293.157 2.18274 293.539 2.45366 293.539 3.63587C293.506 28.1214 293.506 52.607 293.539 77.0926V78.3241M270.067 19.9096C267.395 20.0389 264.914 19.9835 262.488 20.3099C259.48 20.6171 256.666 21.9394 254.509 24.059C252.352 26.1787 250.982 28.9694 250.623 31.9718C250.272 39.4468 250.413 46.9464 250.438 54.4337C250.418 55.3109 250.61 56.18 250.998 56.9669C251.386 57.7538 251.959 58.4353 252.667 58.9532C253.771 59.7478 255.08 60.2081 256.438 60.279C257.796 60.35 259.146 60.0287 260.327 59.3534C263.672 57.5072 266.665 55.0851 269.168 52.1986C269.703 51.6202 270.009 50.8676 270.03 50.0805C270.086 40.549 270.067 30.9928 270.067 21.4921V19.9343" fill="black"/>
<path d="M582.83 78.3523H559.34V67.9218C558.195 69.0363 557.339 69.8983 556.452 70.7295C553.453 73.7594 549.9 76.1842 545.985 77.872C542.439 79.1568 538.667 79.7016 534.902 79.4729C531.81 79.4661 528.755 78.8051 525.937 77.5334C523.556 76.379 521.487 74.6697 519.904 72.5492C518.322 70.4286 517.272 67.959 516.842 65.348C516.304 62.8446 516.028 60.292 516.017 57.7314C515.95 39.5858 515.98 21.4464 515.986 3.30081C515.986 3.01758 515.986 2.73434 516.036 2.32796H539.526V4.07048C539.526 19.3119 539.526 34.5533 539.526 49.7947C539.526 51.4325 539.618 53.0827 539.784 54.7205C539.822 55.6564 540.082 56.5698 540.542 57.3852C541.003 58.2005 541.652 58.8943 542.434 59.4089C543.217 59.9236 544.111 60.2443 545.042 60.3445C545.973 60.4447 546.915 60.3214 547.789 59.985C548.996 59.6491 550.122 59.0732 551.102 58.2918C553.712 56.0751 556.224 53.723 558.681 51.334C559.096 50.7714 559.299 50.08 559.254 49.3821C559.287 34.2844 559.287 19.1887 559.254 4.09511V2.29102H582.806L582.83 78.3523Z" fill="black"/>
<path d="M198.651 29.8204C198.651 27.0312 198.59 24.2788 198.651 21.545C198.688 20.4367 198.362 19.8702 197.291 19.587C195.258 18.8511 193.066 18.6731 190.941 19.0716C188.817 19.4701 186.838 20.4305 185.21 21.8529C184.16 22.8611 183.332 24.0774 182.778 25.4238C182.225 26.7703 181.958 28.2174 181.996 29.6726C181.86 36.5873 181.873 43.5081 182.107 50.4166C182.09 52.0737 182.454 53.7125 183.171 55.2069C183.887 56.7013 184.936 58.0116 186.238 59.0369C188.383 60.621 190.962 61.5105 193.627 61.586C200.025 61.8663 206.411 60.8072 212.376 58.4766C213.343 58.1194 214.365 57.9162 215.565 57.5837V66.5796C215.565 68.9009 215.516 71.2283 215.565 73.5497C215.619 73.923 215.531 74.3028 215.319 74.6148C215.107 74.9268 214.787 75.1486 214.42 75.2368C205.665 78.8675 196.125 80.1904 186.712 79.0789C181.423 78.635 176.276 77.1337 171.578 74.6641C168.059 72.7501 165.065 69.9991 162.862 66.654C160.658 63.3089 159.312 59.4727 158.943 55.4841C157.917 46.487 157.826 37.4078 158.672 28.3919C158.983 23.8554 160.428 19.4696 162.876 15.6374C165.323 11.8052 168.695 8.6493 172.68 6.45959C180.568 1.98917 189.699 0.212292 198.688 1.39827C204.697 1.92481 210.549 3.59686 215.929 6.32412C216.156 6.45169 216.351 6.62858 216.5 6.84174C216.649 7.05489 216.749 7.29885 216.791 7.55559C216.84 14.8643 216.791 22.1669 216.791 29.4756C216.771 29.6018 216.738 29.7256 216.692 29.8451L198.651 29.8204Z" fill="black"/>
<path d="M596.163 74.6449C596.163 69.2203 596.163 63.8388 596.163 58.4635C596.19 58.1471 596.235 57.8326 596.298 57.5214C597.997 57.8477 599.629 58.1371 601.224 58.4696C609.333 60.1875 617.651 60.698 625.909 59.9843C627.096 59.9626 628.265 59.6857 629.335 59.1726C630.406 58.6595 631.354 57.922 632.115 57.0103C632.672 56.3306 633.04 55.5159 633.181 54.6486C633.323 53.7812 633.233 52.8919 632.92 52.0704C632.608 51.249 632.084 50.5245 631.403 49.9702C630.721 49.4159 629.904 49.0514 629.036 48.9135C624.517 47.6389 619.893 46.6538 615.324 45.5146C610.486 44.6163 605.949 42.5207 602.129 39.4189C600.056 37.4942 598.469 35.1059 597.497 32.4495C596.525 29.7931 596.197 26.9443 596.538 24.1365C596.705 21.3539 597.488 18.6431 598.831 16.2003C600.174 13.7574 602.043 11.6436 604.303 10.0116C608.005 7.26703 612.246 5.33464 616.746 4.34071C625.925 2.22954 635.4 1.72745 644.75 2.85679C648.26 3.22623 651.745 3.73729 655.217 4.18677V21.6058C652.828 21.261 650.544 20.9901 648.272 20.596C642.329 19.4459 636.256 19.1227 630.225 19.6355C628.607 19.8335 627.016 20.2051 625.477 20.7438C624.578 21.0045 623.789 21.5538 623.233 22.3072C622.677 23.0605 622.383 23.9759 622.399 24.9123C622.281 25.8658 622.514 26.8298 623.056 27.6233C623.598 28.4168 624.411 28.9854 625.342 29.2224C629.098 30.2876 632.916 31.2051 636.721 32.1225C641.482 32.9883 646.062 34.6538 650.267 37.0483C652.438 38.3369 654.3 40.0849 655.723 42.1698C657.146 44.2546 658.096 46.6258 658.505 49.1167C659.658 54.5549 658.782 60.2268 656.042 65.0641C653.348 69.29 649.279 72.4583 644.522 74.0353C637.862 76.3364 630.855 77.4757 623.809 77.4034C615.011 77.6606 606.214 76.869 597.603 75.0451C597.148 74.9466 596.704 74.8111 596.187 74.6695" fill="black"/>
<path d="M109.609 105.363C94.4991 105.496 79.9182 99.8026 68.8973 89.4644C68.2895 88.9025 67.813 88.2137 67.5017 87.4468C67.1904 86.6799 67.0518 85.8539 67.0959 85.0274C67.14 84.2009 67.3656 83.3943 67.7568 82.6649C68.1479 81.9355 68.695 81.3012 69.3591 80.8072C70.7789 79.7062 72.5425 79.1431 74.3376 79.2175C76.1328 79.2918 77.8437 79.9989 79.1676 81.2136C87.4604 88.8593 98.3268 93.1042 109.606 93.1042C120.886 93.1042 131.752 88.8593 140.045 81.2136C141.369 79.9989 143.08 79.2918 144.875 79.2175C146.67 79.1431 148.434 79.7062 149.854 80.8072C150.518 81.3012 151.065 81.9355 151.456 82.6649C151.847 83.3943 152.073 84.2009 152.117 85.0274C152.161 85.8539 152.022 86.6799 151.711 87.4468C151.4 88.2137 150.923 88.9025 150.315 89.4644C139.294 99.8026 124.714 105.496 109.603 105.363" fill="#ED0000"/>
<path d="M109.609 105.363C94.4991 105.496 79.9182 99.8026 68.8973 89.4644C68.2895 88.9025 67.813 88.2137 67.5017 87.4468C67.1904 86.6799 67.0518 85.8539 67.0959 85.0274C67.14 84.2009 67.3656 83.3943 67.7568 82.6649C68.1479 81.9355 68.695 81.3012 69.3591 80.8072C70.7789 79.7062 72.5425 79.1431 74.3376 79.2175C76.1328 79.2918 77.8437 79.9989 79.1676 81.2136C87.4604 88.8593 98.3268 93.1042 109.606 93.1042C120.886 93.1042 131.752 88.8593 140.045 81.2136C141.369 79.9989 143.08 79.2918 144.875 79.2175C146.67 79.1431 148.434 79.7062 149.854 80.8072C150.518 81.3012 151.065 81.9355 151.456 82.6649C151.847 83.3943 152.073 84.2009 152.117 85.0274C152.161 85.8539 152.022 86.6799 151.711 87.4468C151.4 88.2137 150.923 88.9025 150.315 89.4644C139.294 99.8026 124.714 105.496 109.603 105.363" stroke="#ED0000"/>
<path d="M109.602 79.2216C101.983 79.2216 94.534 76.962 88.1984 72.7287C81.8628 68.4954 76.9248 62.4784 74.0088 55.4386C71.0929 48.3989 70.3299 40.6525 71.8165 33.1792C73.303 25.7058 76.9723 18.8411 82.3603 13.4531C87.7483 8.06505 94.613 4.39578 102.086 2.90923C109.56 1.42269 117.306 2.18564 124.346 5.1016C131.386 8.01757 137.403 12.9556 141.636 19.2912C145.869 25.6268 148.129 33.0755 148.129 40.6953C148.117 50.9096 144.055 60.7023 136.832 67.9249C129.609 75.1475 119.817 79.2101 109.602 79.2216ZM109.602 18.9415C105.3 18.9415 101.094 20.2173 97.5167 22.6077C93.9393 24.998 91.1511 28.3955 89.5046 32.3704C87.8581 36.3454 87.4273 40.7194 88.2667 44.9392C89.1061 49.159 91.1779 53.0352 94.2202 56.0775C97.2626 59.1198 101.139 61.1917 105.359 62.031C109.578 62.8704 113.952 62.4396 117.927 60.7931C121.902 59.1466 125.3 56.3584 127.69 52.781C130.08 49.2036 131.356 44.9977 131.356 40.6953C131.348 34.9283 129.054 29.3999 124.976 25.322C120.898 21.2441 115.369 18.9496 109.602 18.9415Z" fill="black"/>
<path d="M0.589355 74.6449C0.589355 69.2203 0.589355 63.8388 0.589355 58.4635C0.616705 58.1471 0.66195 57.8326 0.724836 57.5214C2.42425 57.8477 4.05587 58.1371 5.65061 58.4696C13.7593 60.1875 22.0774 60.698 30.3353 59.9843C31.5226 59.9626 32.6913 59.6857 33.7621 59.1726C34.833 58.6595 35.781 57.922 36.5418 57.0103C37.0989 56.3306 37.4666 55.5159 37.608 54.6486C37.7494 53.7812 37.6593 52.8919 37.347 52.0704C37.0347 51.249 36.5112 50.5245 35.8293 49.9702C35.1473 49.4159 34.3311 49.0514 33.4632 48.9135C28.9437 47.6389 24.3196 46.6538 19.7509 45.5146C14.9126 44.6163 10.3762 42.5207 6.55576 39.4189C4.483 37.4942 2.89566 35.1059 1.92387 32.4495C0.952075 29.7931 0.623548 26.9443 0.96498 24.1365C1.13171 21.3539 1.91481 18.6431 3.25762 16.2003C4.60044 13.7574 6.46933 11.6436 8.72927 10.0116C12.4322 7.26703 16.6725 5.33464 21.1732 4.34071C30.3515 2.22954 39.8266 1.72745 49.1767 2.85679C52.6863 3.22623 56.1714 3.73729 59.6442 4.18677V21.6058C57.2551 21.261 54.9706 20.9901 52.6986 20.596C46.7559 19.4459 40.6827 19.1227 34.6515 19.6355C33.0339 19.8335 31.4423 20.2051 29.9042 20.7438C29.0047 21.0045 28.2161 21.5538 27.6597 22.3072C27.1033 23.0605 26.8102 23.9759 26.8256 24.9123C26.7074 25.8658 26.9412 26.8298 27.4831 27.6233C28.0249 28.4168 28.8376 28.9854 29.7688 29.2224C33.5247 30.2876 37.3424 31.2051 41.1476 32.1225C45.9086 32.9883 50.4885 34.6538 54.6936 37.0483C56.8643 38.3369 58.7266 40.0849 60.1498 42.1698C61.5731 44.2546 62.5228 46.6258 62.9321 49.1167C64.0843 54.5549 63.2084 60.2268 60.4693 65.0641C57.7747 69.29 53.7062 72.4583 48.9489 74.0353C42.2885 76.3364 35.282 77.4757 28.2356 77.4034C19.4378 77.6606 10.6408 76.869 2.03022 75.0451C1.57458 74.9466 1.13119 74.8111 0.613971 74.6695" fill="black"/>
</svg>
